# Blender 4.5.3 LTS
# www.blender.org
mtllib Concrete.mtl
o prop_garage_pillar.004
v 2.340262 -0.000000 -2.911538
v 2.317046 -0.000000 -2.888323
v 2.317046 4.000000 -2.888323
v 2.340262 4.000000 -2.911538
v 1.866401 -0.000000 -2.888323
v 1.843185 -0.000000 -2.911538
v 1.843185 4.000000 -2.911538
v 1.866401 4.000000 -2.888323
v 2.317046 -0.000000 -3.385399
v 2.340262 -0.000000 -3.362184
v 2.340262 4.000000 -3.362184
v 2.317046 4.000000 -3.385399
v 1.843185 -0.000000 -3.362184
v 1.866401 -0.000000 -3.385399
v 1.866401 4.000000 -3.385399
v 1.843185 4.000000 -3.362184
vn -0.9988 -0.0002 -0.0491
vn -0.9988 -0.0000 0.0491
vn 0.0491 0.0001 -0.9988
vn -0.0491 -0.0002 -0.9988
vn -0.0491 -0.0000 -0.9988
vn 0.9988 0.0002 0.0491
vn 0.0491 -0.0001 0.9988
vn 0.9988 -0.0000 0.0491
vn -0.0491 -0.0000 0.9988
vn 0.9988 0.0001 -0.0491
vn 0.9988 -0.0000 -0.0491
vn 0.0491 -0.0000 0.9988
vn -0.9988 -0.0000 -0.0491
vn 0.0491 -0.0000 -0.9988
vt 0.575108 1.166667
vt 0.424892 -0.166667
vt 0.424892 1.166667
vt 0.575108 -0.166667
vt 0.417154 -0.166667
vt 0.417154 1.166667
vt 0.582846 -0.166667
vt 0.582846 1.166667
s 1
usemtl mat_concrete_wall.001
f 16/1/1 6/2/2 7/3/2
f 12/3/3 14/4/4 15/1/5
f 4/3/6 2/5/7 1/2/8
f 6/2/2 8/6/9 7/3/2
f 14/7/4 16/1/1 15/8/5
f 10/4/10 12/8/3 11/1/11
f 4/3/6 10/4/10 11/1/11
f 8/1/9 2/2/7 3/3/12
f 16/1/1 13/4/13 6/2/2
f 12/3/3 9/2/14 14/4/4
f 4/3/6 3/6/12 2/5/7
f 6/2/2 5/5/9 8/6/9
f 14/7/4 13/4/13 16/1/1
f 10/4/10 9/7/14 12/8/3
f 4/3/6 1/2/8 10/4/10
f 8/1/9 5/4/9 2/2/7
o prop_garage_wall
v -2.908276 2.000138 2.989091
v -2.908276 4.000000 1.989088
v -2.908276 0.000000 2.989091
v -2.908276 4.000000 2.989091
v -2.908276 0.000000 1.989087
v -2.908276 2.000138 1.989088
v -1.908276 2.000138 2.989091
v -1.908276 0.000000 2.989091
v -1.907775 4.000000 2.989091
v -1.193917 4.000000 2.989091
v 2.202600 4.000000 2.989091
v -0.497521 0.000000 2.989091
v -0.497521 2.122960 2.989091
v 0.630355 0.000000 2.989091
v 0.630355 2.122960 2.989091
v 0.630355 2.000138 2.989091
v -0.497521 2.000138 2.989091
v 6.091724 0.000000 2.989091
v 6.091724 2.000138 2.989091
v -1.908276 2.000138 2.989091
v -1.908276 0.000000 2.989091
v 6.091550 4.000000 2.989091
v -1.907775 4.000000 2.989091
v -0.497521 0.000000 3.088753
v -0.497521 2.122960 3.088753
v 0.630355 0.000000 3.088753
v 0.630355 2.122960 3.088753
v 7.091724 3.476810 1.989089
v 7.091724 3.476810 -2.010911
v 7.091724 4.000000 1.988858
v 7.091724 4.000000 -2.010745
v 6.091724 2.000138 -3.010911
v 6.091724 4.000000 -3.010911
v 6.091724 -0.000000 -3.010911
v -1.908276 2.000138 -3.010909
v -1.908276 4.000000 -3.010909
v -1.908276 -0.000000 -3.010909
v -2.908276 2.000138 -2.010912
v -2.908276 -0.000000 -2.010912
v -2.908276 4.000000 -2.010912
v -2.908276 4.000000 1.989088
v -2.908276 0.000000 1.989088
v -2.908276 2.000138 1.989088
v -2.908276 4.000000 -3.010909
v -2.908276 2.000138 -3.010909
v -1.908276 2.000138 -3.010909
v -1.908276 4.000000 -3.010909
v -1.908276 -0.000000 -3.010909
v -2.908276 2.000138 -2.010912
v -2.908276 -0.000000 -2.010912
v -2.908276 4.000000 -2.010912
v -2.908276 -0.000000 -3.010909
v -1.908276 3.146886 -3.010909
v 7.091724 0.000000 1.989089
v 7.091724 4.000000 1.988858
v 7.091724 2.000138 2.989088
v 7.091724 2.000138 1.989089
v 7.091724 0.000000 2.989091
v 7.091724 4.000000 2.989091
v 6.091724 0.000000 2.989091
v 6.091724 2.000138 2.989091
v 6.091550 4.000000 2.989091
v 7.091724 4.000000 1.988858
v -3.133599 0.000000 2.863458
v -3.156814 0.000000 2.886674
v -3.156814 4.000000 2.886674
v -3.133599 4.000000 2.863458
v -3.156814 0.000000 3.337319
v -3.133599 0.000000 3.360535
v -3.133599 4.000000 3.360535
v -3.156814 4.000000 3.337319
v -2.659738 0.000000 2.886674
v -2.682953 0.000000 2.863458
v -2.682953 4.000000 2.863458
v -2.659738 4.000000 2.886674
v -2.682953 0.000000 3.360535
v -2.659738 0.000000 3.337319
v -2.659738 4.000000 3.337319
v -2.682953 4.000000 3.360535
v -3.133599 -0.000000 -2.888323
v -3.156814 -0.000000 -2.911539
v -3.156814 4.000000 -2.911539
v -3.133599 4.000000 -2.888323
v -3.156814 -0.000000 -3.362184
v -3.133599 -0.000000 -3.385399
v -3.133599 4.000000 -3.385399
v -3.156814 4.000000 -3.362184
v -2.659738 -0.000000 -2.911539
v -2.682953 -0.000000 -2.888323
v -2.682953 4.000000 -2.888323
v -2.659738 4.000000 -2.911539
v -2.682953 -0.000000 -3.385399
v -2.659738 -0.000000 -3.362184
v -2.659738 4.000000 -3.362184
v -2.682953 4.000000 -3.385399
v 6.866401 -0.000000 -2.888323
v 6.843186 -0.000000 -2.911539
v 6.843186 4.000000 -2.911539
v 6.866401 4.000000 -2.888323
v 6.843186 -0.000000 -3.362184
v 6.866401 -0.000000 -3.385399
v 6.866401 4.000000 -3.385399
v 6.843186 4.000000 -3.362184
v 7.340262 -0.000000 -2.911539
v 7.317047 -0.000000 -2.888323
v 7.317047 4.000000 -2.888323
v 7.340262 4.000000 -2.911539
v 7.317047 -0.000000 -3.385399
v 7.340262 -0.000000 -3.362184
v 7.340262 4.000000 -3.362184
v 7.317047 4.000000 -3.385399
v 6.866401 0.000000 2.863458
v 6.843186 0.000000 2.886674
v 6.843186 4.000000 2.886674
v 6.866401 4.000000 2.863458
v 6.843186 0.000000 3.337319
v 6.866401 0.000000 3.360535
v 6.866401 4.000000 3.360535
v 6.843186 4.000000 3.337319
v 7.340262 0.000000 2.886674
v 7.317047 0.000000 2.863458
v 7.317047 4.000000 2.863458
v 7.340262 4.000000 2.886674
v 7.317047 0.000000 3.360535
v 7.340262 0.000000 3.337319
v 7.340262 4.000000 3.337319
v 7.317047 4.000000 3.360535
v 2.340261 0.000000 2.886673
v 2.317046 0.000000 2.863458
v 2.317046 4.000000 2.863458
v 2.340261 4.000000 2.886673
v 1.866401 0.000000 2.863458
v 1.843185 0.000000 2.886673
v 1.843185 4.000000 2.886673
v 1.866401 4.000000 2.863458
v 2.317047 0.000000 3.360534
v 2.340262 0.000000 3.337319
v 2.340262 4.000000 3.337319
v 2.317047 4.000000 3.360534
v 1.843185 0.000000 3.337319
v 1.866401 0.000000 3.360534
v 1.866401 4.000000 3.360534
v 1.843185 4.000000 3.337319
v 6.091724 2.000138 -3.010911
v 6.091724 4.000000 -3.010911
v 6.091724 -0.000000 -3.010911
v 7.091724 -0.000000 -2.010912
v 7.091724 4.000000 -2.010745
v 7.091724 2.000138 -2.010912
v 7.091724 -0.000000 -3.010912
v 7.091724 4.000000 -3.010912
v 7.091724 2.000138 -3.010912
v 7.091724 4.000000 -2.010745
vn -0.0000 -0.0000 -1.0000
vn 1.0000 -0.0000 -0.0000
vn -0.0000 -1.0000 -0.0000
vn -1.0000 -0.0000 -0.0000
vn -0.0000 -0.0000 1.0000
vn -0.0000 -0.0000 -0.0000
vn -0.6715 -0.0000 0.7410
vn 0.6715 -0.0000 0.7410
vn 0.7410 -0.0000 0.6715
vn 0.7410 -0.0000 -0.6715
vn -0.7410 0.0001 -0.6715
vn -0.6715 -0.0000 -0.7410
vn -0.7410 -0.0001 0.6715
vn 0.6715 -0.0000 -0.7410
vn -0.7410 -0.0000 -0.6715
vn 0.0491 -0.0001 -0.9988
vn -0.0491 -0.0000 -0.9988
vn 0.9988 -0.0000 0.0491
vn 0.9988 -0.0000 -0.0491
vn -0.0491 -0.0000 0.9988
vn -0.9988 0.0001 0.0491
vn -0.9988 -0.0001 -0.0491
vn 0.0491 -0.0000 0.9988
vn -0.9988 -0.0000 0.0491
vn -0.9239 -0.0000 -0.3827
vn -0.9239 -0.0000 0.3827
vn -0.3827 -0.0000 0.9239
vn 0.3827 -0.0000 0.9239
vn 0.3827 -0.0000 -0.9239
vn 0.9239 -0.0000 -0.3827
vn -0.3827 -0.0000 -0.9239
vn 0.9239 -0.0000 0.3827
vn -0.7410 -0.0000 0.6715
vn 0.0491 -0.0000 -0.9988
vn -0.9988 -0.0000 -0.0491
vt 1.000014 3.503839
vt -0.000109 4.003866
vt -0.000109 3.503839
vt -0.000109 3.003810
vt 0.999881 3.003811
vt -0.000104 3.503839
vt 0.999881 3.503839
vt 0.999880 4.003866
vt -0.000104 4.004117
vt -0.000085 5.273234
vt 1.000025 8.004035
vt -0.000086 8.004034
vt -0.000104 4.361061
vt 0.938456 5.273235
vt 0.938456 4.709273
vt 0.999871 4.003862
vt 1.000026 4.003866
vt -0.000085 4.709273
vt -0.000086 4.003866
vt -0.000104 6.059391
vt -0.000104 8.003948
vt 0.999869 8.004032
vt 0.984371 0.218034
vt 1.034202 0.781969
vt 0.984371 0.781969
vt 0.984370 0.156624
vt 1.034203 -0.843443
vt 1.034201 0.218034
vt 1.034203 1.843443
vt 0.984372 1.843442
vt 0.984371 0.843379
vt 0.261501 11.004288
vt -0.000103 9.004320
vt -0.000104 11.004206
vt 1.000050 -4.000078
vt -0.000039 0.000000
vt -0.000040 -4.000079
vt -0.000106 -4.000079
vt 0.999845 0.000000
vt 0.999845 -4.000080
vt -0.000085 1.003726
vt 1.000026 3.003811
vt -0.000085 3.003810
vt 0.999868 1.003726
vt -0.000104 3.003810
vt 0.999868 3.003810
vt 0.999868 0.503707
vt -0.000105 1.003726
vt -0.000084 0.503707
vt 1.000026 1.003726
vt -0.000084 1.003726
vt 1.000027 0.000000
vt -0.000085 0.500021
vt -0.000085 0.000000
vt 0.999869 0.500021
vt 0.999870 0.000000
vt 0.426471 0.000000
vt 0.999882 9.004086
vt -0.000104 8.504062
vt -0.000103 9.004205
vt -0.000109 9.004087
vt 1.000013 8.504060
vt 1.000013 9.004086
vt -0.000108 8.004034
vt 1.000013 8.504063
vt -0.000109 8.504060
vt 0.999881 8.004028
vt 0.999881 8.504062
vt 0.377483 1.780813
vt -0.122654 1.780813
vt 0.424892 -0.166667
vt 0.575108 1.166667
vt 0.424892 1.166667
vt 0.575108 -0.166667
vt 0.417154 -0.166667
vt 0.417154 1.166667
vt 0.582846 -0.166667
vt 0.582846 1.166667
vt 0.999878 -5.000223
vt -0.000106 -4.500196
vt 0.999878 -4.500196
vt 0.394437 -0.497959
vt 0.894542 -0.497939
vt -0.000106 -5.000223
vt 1.000017 -4.500196
vt -0.000107 -4.500196
vt 0.999879 -4.000169
vt 1.000016 -4.500196
vt -0.000106 -4.000168
vt 1.000014 4.003865
vt 1.000014 3.003810
vt 0.999880 3.503838
vt 1.000025 5.273235
vt 0.999869 4.709273
vt 1.000026 4.709274
vt 0.999869 5.273233
vt 0.984372 -0.843443
vt 0.261502 9.004205
vt 1.000050 0.000000
vt -0.000106 0.000000
vt -0.000105 0.503707
vt 1.000026 0.503707
vt 1.000027 0.500021
vt -0.000106 0.500021
vt 0.999881 8.504060
vt 1.000014 8.004035
vt -0.000106 -5.000306
vt 1.000017 -5.000223
vt 1.000016 -4.000170
s 1
usemtl mat_concrete_wall.001
f 17/9/15 24/10/15 19/11/15
f 21/12/16 17/9/16 19/11/16
f 22/13/16 20/14/16 17/15/16
f 23/16/15 20/14/15 25/17/15
f 30/18/15 35/19/15 34/20/15
f 26/21/15 31/22/15 29/23/15
f 29/23/15 36/24/15 26/21/15
f 36/25/15 28/26/15 37/27/15
f 27/28/15 38/29/15 35/30/15
f 31/31/17 41/32/17 29/33/17
f 32/34/18 42/35/18 43/36/18
f 40/37/16 28/38/16 33/39/16
f 45/40/18 46/41/18 47/42/18
f 48/43/19 53/44/19 50/45/19
f 49/46/19 51/47/19 48/48/19
f 55/49/16 59/50/16 58/51/16
f 54/52/16 57/53/16 59/54/16
f 61/55/16 67/56/16 65/52/16
f 68/57/16 65/58/16 66/59/16
f 62/60/19 68/61/19 64/62/19
f 61/63/19 62/64/19 69/65/19
f 73/66/18 75/67/18 71/68/18
f 70/69/18 72/70/18 73/71/18
f 76/72/15 72/73/15 74/74/15
f 77/75/15 75/67/15 72/76/15
s 0
f 79/77/20 71/77/20 75/78/20
s 1
f 85/79/21 95/80/22 86/81/21
f 93/82/23 91/81/24 94/80/23
f 81/83/25 83/81/26 80/79/26
f 87/84/27 85/79/21 86/81/21
f 95/80/22 93/85/23 94/86/23
f 91/86/24 89/82/28 90/80/28
f 89/82/28 83/81/26 90/80/28
f 81/79/25 87/80/27 82/81/29
f 111/80/30 101/79/31 102/81/31
f 107/81/32 109/82/33 110/80/33
f 99/81/34 97/83/35 96/79/34
f 101/79/31 103/84/36 102/81/31
f 109/85/33 111/80/30 110/86/33
f 105/82/37 107/86/32 106/80/37
f 99/81/34 105/82/37 106/80/37
f 103/80/36 97/79/35 98/81/38
f 127/80/30 117/79/31 118/81/31
f 123/81/32 125/82/33 126/80/33
f 115/81/34 113/83/35 112/79/34
f 117/79/31 119/84/36 118/81/31
f 125/85/33 127/80/30 126/86/33
f 121/82/37 123/86/32 122/80/37
f 115/81/34 121/82/37 122/80/37
f 119/80/36 113/79/35 114/81/38
f 133/79/21 143/80/22 134/81/21
f 141/82/23 139/81/24 142/80/23
f 129/83/25 131/81/26 128/79/26
f 135/84/27 133/79/21 134/81/21
f 143/80/22 141/85/23 142/86/23
f 139/86/24 137/82/28 138/80/28
f 137/82/28 131/81/26 138/80/28
f 129/79/25 135/80/27 130/81/29
f 149/79/39 159/80/40 150/81/39
f 157/82/41 155/81/42 158/80/41
f 145/83/43 147/81/44 144/79/44
f 151/84/45 149/79/39 150/81/39
f 159/80/40 157/85/41 158/86/41
f 155/86/42 153/82/46 154/80/46
f 153/82/46 147/81/44 154/80/46
f 145/79/43 151/80/45 146/81/43
f 165/87/18 167/88/18 168/89/18
s 0
f 167/90/20 164/91/20 169/91/20
s 1
f 163/92/18 168/93/18 166/94/18
f 167/88/19 160/95/19 168/89/19
f 168/96/19 162/97/19 166/94/19
f 17/9/15 23/98/15 24/10/15
f 21/12/16 22/99/16 17/9/16
f 22/13/16 18/53/16 20/14/16
f 23/16/15 17/100/15 20/14/15
f 30/18/15 32/101/15 35/19/15
f 26/21/15 27/28/15 31/22/15
f 33/102/15 36/24/15 29/23/15
f 36/24/15 39/17/15 26/21/15
f 36/25/15 33/103/15 28/26/15
f 35/30/15 32/104/15 27/28/15
f 32/104/15 31/22/15 27/28/15
f 31/31/17 43/36/17 41/32/17
f 43/36/18 31/31/18 32/34/18
f 32/34/18 30/105/18 42/35/18
f 33/39/16 29/33/16 41/32/16
f 41/32/16 40/37/16 33/39/16
f 45/40/18 44/106/18 46/41/18
f 48/43/19 51/107/19 53/44/19
f 49/46/19 52/108/19 51/47/19
f 55/49/16 54/58/16 59/50/16
f 54/52/16 56/56/16 57/53/16
f 61/55/16 60/109/16 67/56/16
f 68/57/16 61/110/16 65/58/16
f 62/60/19 61/111/19 68/61/19
f 69/65/19 63/108/19 60/112/19
f 60/112/19 61/63/19 69/65/19
f 73/66/18 72/113/18 75/67/18
f 70/69/18 74/74/18 72/70/18
f 76/72/15 77/114/15 72/73/15
f 77/75/15 78/29/15 75/67/15
f 85/79/21 92/82/22 95/80/22
f 93/82/23 88/79/24 91/81/24
f 81/83/25 82/84/29 83/81/26
f 87/84/27 84/83/47 85/79/21
f 95/80/22 92/82/22 93/85/23
f 91/86/24 88/85/24 89/82/28
f 89/82/28 80/79/26 83/81/26
f 81/79/25 84/82/47 87/80/27
f 111/80/30 108/82/48 101/79/31
f 107/81/32 104/79/32 109/82/33
f 99/81/34 98/84/38 97/83/35
f 101/79/31 100/83/49 103/84/36
f 109/85/33 108/82/48 111/80/30
f 105/82/37 104/85/32 107/86/32
f 99/81/34 96/79/34 105/82/37
f 103/80/36 100/82/49 97/79/35
f 127/80/30 124/82/48 117/79/31
f 123/81/32 120/79/32 125/82/33
f 115/81/34 114/84/38 113/83/35
f 117/79/31 116/83/49 119/84/36
f 125/85/33 124/82/48 127/80/30
f 121/82/37 120/85/32 123/86/32
f 115/81/34 112/79/34 121/82/37
f 119/80/36 116/82/49 113/79/35
f 133/79/21 140/82/22 143/80/22
f 141/82/23 136/79/24 139/81/24
f 129/83/25 130/84/29 131/81/26
f 135/84/27 132/83/47 133/79/21
f 143/80/22 140/82/22 141/85/23
f 139/86/24 136/85/24 137/82/28
f 137/82/28 128/79/26 131/81/26
f 129/79/25 132/82/47 135/80/27
f 149/79/39 156/82/40 159/80/40
f 157/82/41 152/79/42 155/81/42
f 145/83/43 146/84/43 147/81/44
f 151/84/45 148/83/45 149/79/39
f 159/80/40 156/82/40 157/85/41
f 155/86/42 152/85/42 153/82/46
f 153/82/46 144/79/44 147/81/44
f 145/79/43 148/82/45 151/80/45
f 165/87/18 164/115/18 167/88/18
f 163/92/18 165/116/18 168/93/18
f 167/88/19 161/97/19 160/95/19
f 168/96/19 160/117/19 162/97/19
