# Blender 4.5.3 LTS
# www.blender.org
mtllib mat_garage_poster.mtl
o dec_poster_01
v 2.514627 1.581513 -2.948648
v 3.081330 1.562409 -2.955165
v 2.541548 2.380112 -3.008839
v 3.108251 2.361008 -3.008839
v 2.537061 2.247012 -3.008839
v 2.532574 2.113912 -3.008839
v 2.528087 1.980812 -3.005887
v 2.523600 1.847713 -2.994915
v 2.519114 1.714613 -2.975836
v 3.085817 1.695509 -2.979409
v 3.090303 1.828609 -2.996423
v 3.094790 1.961709 -3.006207
v 3.099277 2.094809 -3.008839
v 3.103764 2.227908 -3.008839
v 2.627967 1.577692 -2.971641
v 2.741308 1.573871 -2.984056
v 2.854649 1.570051 -2.985309
v 2.967989 1.566230 -2.975457
v 2.948312 1.700144 -2.986416
v 2.859135 1.703151 -2.991099
v 2.755909 1.706630 -2.990197
v 2.651617 1.710146 -2.983680
v 2.920754 1.834324 -3.000257
v 2.836580 1.837162 -3.001781
v 2.783940 1.838936 -3.001551
v 2.713447 1.841313 -2.999853
v 2.820788 1.970945 -3.007916
vn -0.0176 0.0720 0.9972
vn -0.0265 0.0939 0.9952
vn -0.0095 0.0425 0.9991
vn -0.0976 0.1025 0.9899
vn -0.0745 0.1259 0.9892
vn -0.0482 0.0837 0.9953
vn 0.0015 0.0302 0.9995
vn -0.0000 -0.0000 1.0000
vn -0.1673 0.1821 0.9689
vn 0.0028 0.0089 1.0000
vn 0.0143 0.0464 0.9988
vn 0.0354 0.0636 0.9973
vn 0.0165 0.0628 0.9979
vn 0.0272 0.0747 0.9968
vn -0.0019 0.0081 1.0000
vn 0.0627 0.0876 0.9942
vn 0.0375 0.1027 0.9940
vn -0.0041 0.0627 0.9980
vn 0.0946 0.1348 0.9864
vn -0.0183 0.0644 0.9978
vn 0.1235 0.1066 0.9866
vn 0.2013 0.1895 0.9610
vn 0.0538 0.0514 0.9972
vn -0.0301 0.0521 0.9982
vt 0.208856 0.719016
vt 0.297915 0.719016
vt 0.297915 0.788969
vt 0.238381 0.579112
vt 0.297915 0.649064
vt 0.225688 0.649064
vt 0.153991 0.788969
vt 0.297915 0.928873
vt 0.000245 0.998826
vt 0.000245 0.928873
vt 0.297915 0.579112
vt 0.000245 0.858921
vt 0.000245 0.788969
vt 0.124625 0.649064
vt 0.136992 0.719016
vt 0.099965 0.719016
vt 0.297915 0.998826
vt 0.297915 0.858921
vt 0.069844 0.649064
vt 0.000245 0.719016
vt 0.164642 0.719016
vt 0.000245 0.649064
vt 0.178847 0.649064
vt 0.059779 0.579112
vt 0.000245 0.579112
vt 0.119313 0.579112
vt 0.178847 0.579112
s 1
usemtl mat_garage_poster
f 23/1/1 11/2/2 12/3/3
f 18/4/4 10/5/5 19/6/6
f 19/6/6 11/2/2 23/1/1
f 23/1/1 12/3/3 27/7/7
f 14/8/8 3/9/8 5/10/8
f 18/4/4 2/11/9 10/5/5
f 19/6/6 10/5/5 11/2/2
f 6/12/10 7/13/11 27/7/7
f 21/14/12 25/15/13 26/16/14
f 26/16/14 27/7/7 7/13/11
f 14/8/8 4/17/8 3/9/8
f 27/7/7 13/18/15 6/12/10
f 22/19/16 26/16/14 8/20/17
f 27/7/7 12/3/3 13/18/15
f 26/16/14 7/13/11 8/20/17
f 26/16/14 25/15/13 27/7/7
f 25/15/13 24/21/18 27/7/7
f 24/21/18 23/1/1 27/7/7
f 22/19/16 8/20/17 9/22/19
f 21/14/12 26/16/14 22/19/16
f 21/14/12 24/21/18 25/15/13
f 20/23/20 23/1/1 24/21/18
f 15/24/21 9/22/19 1/25/22
f 16/26/23 22/19/16 15/24/21
f 17/27/24 21/14/12 16/26/23
f 17/27/24 19/6/6 20/23/20
f 13/18/15 5/10/8 6/12/10
f 15/24/21 22/19/16 9/22/19
f 20/23/20 19/6/6 23/1/1
f 21/14/12 20/23/20 24/21/18
f 16/26/23 21/14/12 22/19/16
f 17/27/24 20/23/20 21/14/12
f 17/27/24 18/4/4 19/6/6
f 13/18/15 14/8/8 5/10/8
o dec_poster_01.001
v 0.325227 1.119372 3.052413
v -0.240824 1.152588 3.058930
v 0.372036 1.917053 3.112604
v -0.194015 1.950269 3.112604
v 0.364234 1.784106 3.112604
v 0.356433 1.651159 3.112604
v 0.348631 1.518212 3.109653
v 0.340830 1.385266 3.098680
v 0.333029 1.252319 3.079601
v -0.233023 1.285535 3.083174
v -0.225221 1.418482 3.100188
v -0.217420 1.551429 3.109972
v -0.209618 1.684375 3.112604
v -0.201817 1.817322 3.112604
v 0.212017 1.126015 3.075406
v 0.098807 1.132659 3.087821
v -0.014403 1.139302 3.089074
v -0.127614 1.145945 3.079222
v -0.095676 1.277476 3.090181
v -0.006602 1.272249 3.094864
v 0.096506 1.266198 3.093962
v 0.200678 1.260085 3.087445
v -0.055867 1.408544 3.104022
v 0.028211 1.403610 3.105546
v 0.080790 1.400525 3.105316
v 0.151202 1.396393 3.103618
v 0.056267 1.535368 3.111681
vn 0.0241 0.0701 -0.9972
vn 0.0350 0.0911 -0.9952
vn 0.0134 0.0414 -0.9991
vn 0.1066 0.0930 -0.9899
vn 0.0858 0.1185 -0.9892
vn 0.0557 0.0789 -0.9953
vn 0.0012 0.0302 -0.9995
vn -0.0000 -0.0000 -1.0000
vn 0.1834 0.1659 -0.9689
vn -0.0020 0.0091 -1.0000
vn -0.0100 0.0476 -0.9988
vn -0.0294 0.0666 -0.9973
vn -0.0107 0.0640 -0.9979
vn -0.0202 0.0769 -0.9968
vn 0.0027 0.0079 -1.0000
vn -0.0544 0.0931 -0.9942
vn -0.0279 0.1057 -0.9940
vn 0.0098 0.0620 -0.9980
vn -0.0818 0.1429 -0.9864
vn 0.0242 0.0625 -0.9978
vn -0.1131 0.1175 -0.9866
vn -0.1830 0.2073 -0.9610
vn -0.0489 0.0561 -0.9972
vn 0.0348 0.0491 -0.9982
vt 0.859412 0.719016
vt 0.948471 0.719016
vt 0.948471 0.788969
vt 0.888937 0.579112
vt 0.948471 0.649064
vt 0.876244 0.649064
vt 0.804547 0.788969
vt 0.948470 0.928873
vt 0.650801 0.998826
vt 0.650801 0.928873
vt 0.948471 0.579112
vt 0.650801 0.858921
vt 0.650801 0.788969
vt 0.775181 0.649064
vt 0.787548 0.719016
vt 0.750520 0.719016
vt 0.804546 0.788969
vt 0.948470 0.998826
vt 0.948471 0.858921
vt 0.720400 0.649064
vt 0.650801 0.719016
vt 0.815198 0.719016
vt 0.650801 0.649064
vt 0.829403 0.649064
vt 0.710335 0.579112
vt 0.650801 0.579112
vt 0.769869 0.579112
vt 0.829403 0.579112
s 1
usemtl mat_garage_poster
f 50/28/25 38/29/26 39/30/27
f 45/31/28 37/32/29 46/33/30
f 46/33/30 38/29/26 50/28/25
f 50/28/25 39/30/27 54/34/31
f 41/35/32 30/36/32 32/37/32
f 45/31/28 29/38/33 37/32/29
f 46/33/30 37/32/29 38/29/26
f 33/39/34 34/40/35 54/34/31
f 48/41/36 52/42/37 53/43/38
f 53/43/38 54/44/31 34/40/35
f 41/35/32 31/45/32 30/36/32
f 54/34/31 40/46/39 33/39/34
f 49/47/40 53/43/38 35/48/41
f 54/34/31 39/30/27 40/46/39
f 53/43/38 34/40/35 35/48/41
f 53/43/38 52/42/37 54/44/31
f 52/42/37 51/49/42 54/34/31
f 51/49/42 50/28/25 54/34/31
f 49/47/40 35/48/41 36/50/43
f 48/41/36 53/43/38 49/47/40
f 48/41/36 51/49/42 52/42/37
f 47/51/44 50/28/25 51/49/42
f 42/52/45 36/50/43 28/53/46
f 43/54/47 49/47/40 42/52/45
f 44/55/48 48/41/36 43/54/47
f 44/55/48 46/33/30 47/51/44
f 40/46/39 32/37/32 33/39/34
f 42/52/45 49/47/40 36/50/43
f 47/51/44 46/33/30 50/28/25
f 48/41/36 47/51/44 51/49/42
f 43/54/47 48/41/36 49/47/40
f 44/55/48 47/51/44 48/41/36
f 44/55/48 45/31/28 46/33/30
f 40/46/39 41/35/32 32/37/32
o dec_poster_01.002
v -2.843095 1.455550 2.656308
v -2.849612 1.488766 2.090257
v -2.903286 2.253230 2.703117
v -2.903286 2.286446 2.137066
v -2.903286 2.120283 2.695315
v -2.903286 1.987337 2.687514
v -2.900334 1.854390 2.679713
v -2.889362 1.721443 2.671911
v -2.870283 1.588496 2.664110
v -2.873856 1.621713 2.098058
v -2.890870 1.754659 2.105860
v -2.900654 1.887606 2.113661
v -2.903286 2.020553 2.121463
v -2.903286 2.153500 2.129264
v -2.866089 1.462193 2.543098
v -2.878503 1.468836 2.429888
v -2.879756 1.475479 2.316678
v -2.869904 1.482123 2.203467
v -2.880863 1.613653 2.235405
v -2.885546 1.608426 2.324479
v -2.884644 1.602376 2.427587
v -2.878127 1.596263 2.531759
v -2.894704 1.744722 2.275214
v -2.896228 1.739788 2.359292
v -2.895998 1.736702 2.411871
v -2.894300 1.732571 2.482283
v -2.902363 1.871546 2.387348
vn 0.9972 0.0701 0.0241
vn 0.9952 0.0911 0.0350
vn 0.9991 0.0414 0.0134
vn 0.9899 0.0930 0.1066
vn 0.9892 0.1185 0.0858
vn 0.9953 0.0789 0.0557
vn 0.9995 0.0302 0.0012
vn 1.0000 -0.0000 -0.0000
vn 0.9689 0.1659 0.1834
vn 1.0000 0.0091 -0.0020
vn 0.9988 0.0476 -0.0100
vn 0.9973 0.0666 -0.0294
vn 0.9979 0.0640 -0.0107
vn 0.9968 0.0769 -0.0202
vn 1.0000 0.0079 0.0027
vn 0.9942 0.0931 -0.0544
vn 0.9940 0.1057 -0.0279
vn 0.9980 0.0620 0.0098
vn 0.9864 0.1429 -0.0818
vn 0.9978 0.0625 0.0242
vn 0.9866 0.1175 -0.1131
vn 0.9610 0.2073 -0.1830
vn 0.9972 0.0561 -0.0489
vn 0.9982 0.0491 0.0348
vt 0.527829 0.732854
vt 0.612040 0.733590
vt 0.612040 0.795097
vt 0.557765 0.583251
vt 0.612040 0.664864
vt 0.544896 0.664701
vt 0.472198 0.794488
vt 0.612040 0.919137
vt 0.308207 0.993009
vt 0.308207 0.919137
vt 0.612040 0.583251
vt 0.308207 0.855057
vt 0.308207 0.795097
vt 0.442423 0.664836
vt 0.454963 0.733290
vt 0.417419 0.732546
vt 0.472198 0.794190
vt 0.612040 0.993009
vt 0.612040 0.855057
vt 0.386878 0.664762
vt 0.308207 0.733590
vt 0.482998 0.733256
vt 0.308207 0.664864
vt 0.497401 0.664864
vt 0.376672 0.583251
vt 0.308207 0.583251
vt 0.437037 0.583251
vt 0.497401 0.583251
s 1
usemtl mat_garage_poster
f 77/56/49 65/57/50 66/58/51
f 72/59/52 64/60/53 73/61/54
f 73/61/54 65/57/50 77/56/49
f 77/56/49 66/58/51 81/62/55
f 68/63/56 57/64/56 59/65/56
f 72/59/52 56/66/57 64/60/53
f 73/61/54 64/60/53 65/57/50
f 60/67/58 61/68/59 81/62/55
f 75/69/60 79/70/61 80/71/62
f 80/71/62 81/72/55 61/68/59
f 68/63/56 58/73/56 57/64/56
f 81/62/55 67/74/63 60/67/58
f 76/75/64 80/71/62 62/76/65
f 81/62/55 66/58/51 67/74/63
f 80/71/62 61/68/59 62/76/65
f 80/71/62 79/70/61 81/72/55
f 79/70/61 78/77/66 81/62/55
f 78/77/66 77/56/49 81/62/55
f 76/75/64 62/76/65 63/78/67
f 75/69/60 80/71/62 76/75/64
f 75/69/60 78/77/66 79/70/61
f 74/79/68 77/56/49 78/77/66
f 69/80/69 63/78/67 55/81/70
f 70/82/71 76/75/64 69/80/69
f 71/83/72 75/69/60 70/82/71
f 71/83/72 73/61/54 74/79/68
f 67/74/63 59/65/56 60/67/58
f 69/80/69 76/75/64 63/78/67
f 74/79/68 73/61/54 77/56/49
f 75/69/60 74/79/68 78/77/66
f 70/82/71 75/69/60 76/75/64
f 71/83/72 74/79/68 75/69/60
f 71/83/72 72/59/52 73/61/54
f 67/74/63 68/63/56 59/65/56
o prop_garage_blueprint
v -2.270300 0.952637 0.369006
v -2.127198 0.927299 0.867440
v -2.266482 0.934136 0.382972
v -2.261285 0.927299 0.401982
v -2.269982 0.974355 0.370170
v -2.267012 0.989236 0.381032
v -2.262558 0.994464 0.397326
v -2.257680 0.988834 0.415172
v -2.254499 0.975159 0.426811
v -2.254074 0.956659 0.428363
v -2.256302 0.941778 0.420216
v -2.259059 0.934941 0.410129
v -2.262240 0.934539 0.398490
v -2.266694 0.941376 0.382196
v -2.268709 0.957865 0.374825
v -2.267755 0.971540 0.378317
v -2.264255 0.981192 0.391119
v -2.260543 0.981594 0.404697
v -2.257680 0.971540 0.415172
v -2.257043 0.960681 0.417500
v -2.787051 0.952637 0.510262
v -2.643950 0.927299 1.008696
v -2.783234 0.934136 0.524228
v -2.778037 0.927299 0.543238
v -2.786733 0.974355 0.511426
v -2.783764 0.989236 0.522288
v -2.779310 0.994464 0.538582
v -2.774431 0.988834 0.556428
v -2.771250 0.975159 0.568067
v -2.770826 0.956659 0.569619
v -2.773053 0.941778 0.561472
v -2.775810 0.934941 0.551385
v -2.778992 0.934539 0.539746
v -2.783445 0.941376 0.523452
v -2.785461 0.957865 0.516081
v -2.784506 0.971540 0.519573
v -2.781006 0.981192 0.532375
v -2.777295 0.981594 0.545954
v -2.774431 0.971540 0.556428
v -2.773795 0.960681 0.558756
vn -0.2627 -0.0875 -0.9609
vn -0.1818 -0.7243 -0.6650
vn -0.0006 1.0000 -0.0023
vn 0.1426 0.8410 0.5219
vn 0.1426 0.8410 0.5218
vn -0.2176 0.5650 -0.7959
vn 0.2424 0.3939 0.8866
vn -0.2475 0.3444 -0.9056
vn -0.2516 -0.2996 -0.9203
vn -0.0851 0.9465 -0.3114
vn 0.2576 -0.2131 0.9425
vn -0.1533 -0.8137 -0.5607
vn 0.0927 0.9362 0.3391
vn 0.1922 -0.6846 0.7032
vn 0.1922 -0.6845 0.7032
vn -0.0436 -0.9862 -0.1596
vn -0.0000 -1.0000 -0.0000
vn -0.0440 -0.9860 -0.1610
vn 0.2287 0.4980 0.8365
vn 0.0795 -0.9535 0.2907
vn 0.2574 0.2169 0.9416
vn 0.2574 0.2170 0.9416
vn -0.0461 -0.9846 -0.1686
vn -0.1514 0.8187 -0.5538
vt 0.635496 0.515388
vt 0.623430 0.043450
vt 0.639436 0.043584
vt 0.517289 0.514401
vt 0.538260 0.042739
vt 0.534320 0.514543
vt 0.651894 0.043688
vt 0.647954 0.515492
vt 0.550381 0.514677
vt 0.554321 0.042873
vt 0.485280 0.514134
vt 0.470063 0.042169
vt 0.489220 0.042329
vt 0.666347 0.043808
vt 0.662407 0.515613
vt 0.570676 0.043010
vt 0.566736 0.514814
vt 0.466123 0.513974
vt 0.449373 0.041997
vt 0.674810 0.515716
vt 0.678750 0.043912
vt 0.581806 0.514940
vt 0.585745 0.043135
vt 0.427062 0.513647
vt 0.004390 0.044103
vt 0.431002 0.041843
vt 0.691783 0.044021
vt 0.687843 0.515825
vt 0.596749 0.043227
vt 0.592809 0.515031
vt 0.445433 0.513801
vt 0.701580 0.044103
vt 0.697640 0.515907
vt 0.607381 0.043316
vt 0.603441 0.515120
vt 0.505655 0.042467
vt 0.501715 0.514271
vt 0.619490 0.515254
vt 0.521228 0.042597
vt 0.000450 0.515907
s 1
usemtl mat_garage_poster
f 96/84/73 115/85/74 116/86/73
f 88/87/75 109/88/76 89/89/77
f 96/84/73 117/90/78 97/91/78
f 90/92/79 109/88/76 110/93/79
f 86/94/80 102/95/81 106/96/80
f 97/91/78 118/97/82 98/98/82
f 90/92/79 111/99/83 91/100/83
f 82/101/81 104/102/84 102/95/81
f 99/103/85 118/97/82 119/104/85
f 92/105/86 111/99/83 112/106/87
f 85/107/88 103/108/89 105/109/90
f 99/103/85 120/110/91 100/111/91
f 92/105/86 113/112/92 93/113/92
f 85/107/88 104/102/84 84/114/84
f 100/111/91 121/115/93 101/116/94
f 93/113/92 114/117/95 94/118/95
f 86/94/80 107/119/96 87/120/96
f 94/118/95 115/85/74 95/121/74
f 87/120/96 108/122/75 88/87/75
f 96/84/73 95/121/74 115/85/74
f 88/87/75 108/122/75 109/88/76
f 96/84/73 116/86/73 117/90/78
f 90/92/79 89/89/77 109/88/76
f 86/94/80 82/101/81 102/95/81
f 97/91/78 117/90/78 118/97/82
f 90/92/79 110/93/79 111/99/83
f 82/101/81 84/114/84 104/102/84
f 99/103/85 98/98/82 118/97/82
f 92/105/86 91/100/83 111/99/83
f 85/107/88 83/123/89 103/108/89
f 99/103/85 119/104/85 120/110/91
f 92/105/86 112/106/87 113/112/92
f 85/107/88 105/109/90 104/102/84
f 100/111/91 120/110/91 121/115/93
f 93/113/92 113/112/92 114/117/95
f 86/94/80 106/96/80 107/119/96
f 94/118/95 114/117/95 115/85/74
f 87/120/96 107/119/96 108/122/75
o prop_garage_blueprint.001
v -2.193807 0.952637 0.072914
v -2.184939 0.934136 0.084359
v -2.172868 0.927299 0.099937
v -2.193068 0.974355 0.073868
v -2.186170 0.989236 0.082769
v -2.175824 0.994464 0.096122
v -2.164493 0.988834 0.110746
v -2.157102 0.975159 0.120283
v -2.156117 0.956659 0.121555
v -2.161290 0.941778 0.114879
v -2.167695 0.934941 0.106613
v -2.175085 0.934539 0.097075
v -2.185431 0.941376 0.083723
v -2.190112 0.957865 0.077683
v -2.187894 0.971540 0.080544
v -2.179765 0.981192 0.091035
v -2.171144 0.981594 0.102162
v -2.164493 0.971540 0.110746
v -2.163015 0.960681 0.112653
v -2.617270 0.952637 0.401036
v -2.608402 0.934136 0.412481
v -2.596331 0.927299 0.428059
v -2.616531 0.974355 0.401990
v -2.609634 0.989236 0.410891
v -2.599287 0.994464 0.424244
v -2.587956 0.988834 0.438868
v -2.580566 0.975159 0.448406
v -2.579580 0.956659 0.449677
v -2.584753 0.941778 0.443001
v -2.591158 0.934941 0.434735
v -2.598549 0.934539 0.425198
v -2.608894 0.941376 0.411845
v -2.613575 0.957865 0.405805
v -2.611358 0.971540 0.408666
v -2.603229 0.981192 0.419157
v -2.594607 0.981594 0.430285
v -2.587956 0.971540 0.438868
v -2.586478 0.960681 0.440776
vn -0.6102 -0.0875 -0.7874
vn -0.4223 -0.7243 -0.5450
vn 0.3314 0.8410 0.4276
vn -0.0014 1.0000 -0.0019
vn -0.5054 0.5649 -0.6522
vn -0.5054 0.5650 -0.6522
vn 0.5630 0.3939 0.7266
vn -0.5750 0.3444 -0.7421
vn -0.5844 -0.2996 -0.7542
vn -0.1977 0.9465 -0.2552
vn -0.1977 0.9465 -0.2551
vn 0.5984 -0.2131 0.7723
vn -0.3561 -0.8137 -0.4595
vn 0.2153 0.9362 0.2779
vn 0.4465 -0.6845 0.5762
vn 0.4465 -0.6846 0.5762
vn 0.5311 0.4980 0.6855
vn 0.5312 0.4980 0.6855
vn 0.1846 -0.9535 0.2383
vn -0.2008 -0.9448 -0.2591
vn 0.5979 0.2170 0.7716
vn 0.5979 0.2169 0.7716
vn -0.1070 -0.9846 -0.1381
vn -0.3517 0.8187 -0.4539
vn -0.3517 0.8188 -0.4538
vt 0.635496 0.515388
vt 0.623430 0.043450
vt 0.639436 0.043584
vt 0.534320 0.514543
vt 0.521228 0.042597
vt 0.538260 0.042739
vt 0.651894 0.043688
vt 0.647954 0.515492
vt 0.554321 0.042873
vt 0.550381 0.514677
vt 0.485280 0.514134
vt 0.470063 0.042169
vt 0.489220 0.042329
vt 0.662407 0.515613
vt 0.666347 0.043808
vt 0.566736 0.514814
vt 0.570676 0.043010
vt 0.445433 0.513801
vt 0.466123 0.513974
vt 0.674810 0.515716
vt 0.678750 0.043912
vt 0.585745 0.043135
vt 0.581806 0.514940
vt 0.691783 0.044021
vt 0.687843 0.515825
vt 0.592809 0.515031
vt 0.596749 0.043227
vt 0.431002 0.041843
vt 0.449373 0.041997
vt 0.701580 0.044103
vt 0.697640 0.515907
vt 0.607381 0.043316
vt 0.603441 0.515120
vt 0.505655 0.042467
vt 0.501715 0.514271
vt 0.619490 0.515254
vt 0.517289 0.514401
vt 0.427062 0.513647
s 1
usemtl mat_garage_poster
f 135/124/97 153/125/98 154/126/97
f 128/127/99 146/128/100 147/129/99
f 135/124/97 155/130/101 136/131/102
f 128/127/99 148/132/103 129/133/103
f 125/134/104 141/135/105 144/136/104
f 137/137/106 155/130/101 156/138/107
f 130/139/108 148/132/103 149/140/108
f 123/141/109 141/135/105 122/142/105
f 138/143/110 156/138/107 157/144/110
f 130/139/108 150/145/111 131/146/112
f 138/143/110 158/147/113 139/148/114
f 132/149/115 150/145/111 151/150/115
f 123/141/109 143/151/116 142/152/109
f 139/148/114 159/153/117 140/154/118
f 132/149/115 152/155/119 133/156/119
f 125/134/104 145/157/120 126/158/121
f 133/156/119 153/125/98 134/159/98
f 126/158/121 146/128/100 127/160/100
f 135/124/97 134/159/98 153/125/98
f 128/127/99 127/160/100 146/128/100
f 135/124/97 154/126/97 155/130/101
f 128/127/99 147/129/99 148/132/103
f 125/134/104 122/142/105 141/135/105
f 137/137/106 136/131/102 155/130/101
f 130/139/108 129/133/103 148/132/103
f 123/141/109 142/152/109 141/135/105
f 138/143/110 137/137/106 156/138/107
f 130/139/108 149/140/108 150/145/111
f 138/143/110 157/144/110 158/147/113
f 132/149/115 131/146/112 150/145/111
f 123/141/109 124/161/116 143/151/116
f 139/148/114 158/147/113 159/153/117
f 132/149/115 151/150/115 152/155/119
f 125/134/104 144/136/104 145/157/120
f 133/156/119 152/155/119 153/125/98
f 126/158/121 145/157/120 146/128/100
o prop_garage_blueprint.002
v 0.135246 1.695955 -2.908475
v 0.116038 1.671409 -2.908673
v 0.089893 1.662338 -2.908944
v 0.133645 1.724769 -2.908491
v 0.118705 1.744512 -2.908646
v 0.096296 1.751448 -2.908878
v 0.071752 1.743978 -2.909131
v 0.055745 1.725836 -2.909297
v 0.053610 1.701290 -2.909319
v 0.064815 1.681548 -2.909203
v 0.078688 1.672476 -2.909060
v 0.094695 1.671943 -2.908894
v 0.117105 1.681014 -2.908662
v 0.127242 1.702891 -2.908557
v 0.122440 1.721034 -2.908607
v 0.104833 1.733840 -2.908789
v 0.086158 1.734373 -2.908983
v 0.071752 1.721033 -2.909131
v 0.068550 1.706626 -2.909164
v 0.127898 1.695955 -2.197767
v 0.108690 1.671409 -2.197966
v 0.082545 1.662338 -2.198236
v 0.126297 1.724769 -2.197784
v 0.111357 1.744512 -2.197938
v 0.088948 1.751448 -2.198170
v 0.064404 1.743978 -2.198424
v 0.048397 1.725836 -2.198589
v 0.046262 1.701290 -2.198611
v 0.057467 1.681548 -2.198495
v 0.071340 1.672476 -2.198352
v 0.087347 1.671943 -2.198186
v 0.109757 1.681014 -2.197955
v 0.119894 1.702891 -2.197850
v 0.115092 1.721034 -2.197900
v 0.097485 1.733840 -2.198082
v 0.078810 1.734373 -2.198275
v 0.064404 1.721033 -2.198424
v 0.061202 1.706626 -2.198457
vn 0.9961 -0.0875 0.0103
vn 0.6894 -0.7243 0.0071
vn -0.5410 0.8410 -0.0056
vn 0.0024 1.0000 -0.0000
vn 0.8251 0.5650 0.0085
vn -0.9191 0.3939 -0.0095
vn 0.9388 0.3445 0.0097
vn 0.9540 -0.2996 0.0099
vn 0.3228 0.9465 0.0033
vn -0.9770 -0.2131 -0.0101
vn 0.5813 -0.8137 0.0060
vn -0.3515 0.9362 -0.0036
vn -0.7289 -0.6845 -0.0075
vn -0.8671 0.4980 -0.0090
vn -0.3014 -0.9535 -0.0031
vn 0.3278 -0.9448 0.0034
vn 0.3277 -0.9448 0.0034
vn -0.9761 0.2170 -0.0101
vn 0.1747 -0.9846 0.0018
vn 0.5741 0.8187 0.0059
vn 0.5741 0.8188 0.0059
vn 0.9387 0.3445 0.0097
vt 0.635496 0.515388
vt 0.623430 0.043450
vt 0.619490 0.515254
vt 0.534320 0.514543
vt 0.521228 0.042597
vt 0.517289 0.514401
vt 0.651894 0.043688
vt 0.647954 0.515492
vt 0.554321 0.042873
vt 0.550381 0.514677
vt 0.485280 0.514134
vt 0.470063 0.042169
vt 0.466123 0.513974
vt 0.662407 0.515613
vt 0.566736 0.514814
vt 0.449373 0.041997
vt 0.445433 0.513801
vt 0.678750 0.043912
vt 0.674810 0.515716
vt 0.581806 0.514940
vt 0.570676 0.043010
vt 0.687843 0.515825
vt 0.596749 0.043227
vt 0.592809 0.515031
vt 0.431002 0.041843
vt 0.427062 0.513647
vt 0.697640 0.515907
vt 0.691783 0.044021
vt 0.603441 0.515120
vt 0.505655 0.042467
vt 0.501715 0.514271
vt 0.639436 0.043584
vt 0.538260 0.042739
vt 0.489220 0.042329
vt 0.666347 0.043808
vt 0.585745 0.043135
vt 0.701580 0.044103
vt 0.607381 0.043316
s 1
usemtl mat_garage_poster
f 173/162/122 191/163/123 172/164/123
f 166/165/124 184/166/125 165/167/125
f 193/168/126 173/162/122 174/169/126
f 186/170/127 166/165/124 167/171/127
f 163/172/128 179/173/129 160/174/129
f 175/175/130 193/168/126 174/169/126
f 168/176/131 186/170/127 167/171/127
f 160/174/129 180/177/132 161/178/132
f 195/179/133 175/175/130 176/180/133
f 169/181/134 187/182/131 168/176/131
f 177/183/135 195/179/133 176/180/133
f 189/184/136 169/181/134 170/185/136
f 161/178/132 181/186/137 162/187/138
f 178/188/139 196/189/135 177/183/135
f 171/190/140 189/184/136 170/185/136
f 183/191/141 163/172/128 164/192/142
f 191/163/123 171/190/140 172/164/123
f 184/166/125 164/192/142 165/167/125
f 173/162/122 192/193/122 191/163/123
f 166/165/124 185/194/124 184/166/125
f 193/168/126 192/193/122 173/162/122
f 186/170/127 185/194/124 166/165/124
f 163/172/128 182/195/143 179/173/129
f 175/175/130 194/196/130 193/168/126
f 168/176/131 187/182/131 186/170/127
f 160/174/129 179/173/129 180/177/132
f 195/179/133 194/196/130 175/175/130
f 169/181/134 188/197/134 187/182/131
f 177/183/135 196/189/135 195/179/133
f 189/184/136 188/197/134 169/181/134
f 161/178/132 180/177/132 181/186/137
f 178/188/139 197/198/139 196/189/135
f 171/190/140 190/199/140 189/184/136
f 183/191/141 182/195/143 163/172/128
f 191/163/123 190/199/140 171/190/140
f 184/166/125 183/191/141 164/192/142
o prop_garage_blueprint.003
v -0.036637 1.745002 -2.927389
v -0.006194 1.751504 -2.928959
v 0.019641 1.741686 -2.930393
v -0.053881 1.721875 -2.926629
v -0.055096 1.697146 -2.926729
v -0.042382 1.677446 -2.927534
v -0.018798 1.667428 -2.928850
v 0.005088 1.671072 -2.930091
v 0.022456 1.688529 -2.930895
v 0.026531 1.710861 -2.930963
v 0.021722 1.726720 -2.930603
v 0.009807 1.737400 -2.929900
v -0.013168 1.744822 -2.928634
v -0.034954 1.734547 -2.927548
v -0.042906 1.717550 -2.927239
v -0.037632 1.696430 -2.927659
v -0.023673 1.684038 -2.928481
v -0.004091 1.685026 -2.929512
v 0.007595 1.694022 -2.930071
v 0.000963 1.740288 -2.217655
v 0.031406 1.746789 -2.219224
v 0.057241 1.736971 -2.220658
v -0.016281 1.717160 -2.216895
v -0.017496 1.692431 -2.216995
v -0.004782 1.672732 -2.217799
v 0.018802 1.662713 -2.219115
v 0.042688 1.666357 -2.220356
v 0.060056 1.683814 -2.221160
v 0.064131 1.706146 -2.221228
v 0.059322 1.722005 -2.220868
v 0.047407 1.732685 -2.220165
v 0.024432 1.740107 -2.218899
v 0.002646 1.729832 -2.217813
v -0.005306 1.712835 -2.217505
v -0.000032 1.691715 -2.217925
v 0.013927 1.679323 -2.218746
v 0.033509 1.680311 -2.219777
v 0.045195 1.689307 -2.220336
vn -0.7067 0.7062 0.0421
vn -0.0636 0.9979 0.0100
vn -0.1248 -0.9922 -0.0000
vn -0.6428 -0.7655 0.0290
vn -0.9939 0.0961 0.0533
vn 0.4513 -0.8919 -0.0298
vn -0.9397 0.3382 0.0520
vn -0.5385 0.8419 0.0341
vn -0.9396 0.3382 0.0520
vn -0.8539 -0.5188 0.0418
vn -0.8538 -0.5188 0.0418
vn 0.8847 -0.4634 -0.0499
vn 0.0764 0.9971 0.0026
vn -0.3309 -0.9436 0.0113
vn 0.9970 0.0573 -0.0524
vn 0.3448 -0.9383 -0.0245
vn 0.8420 0.5379 -0.0410
vn 0.3546 0.9349 -0.0126
vn 0.6084 -0.7927 -0.0375
vn 0.4973 0.8673 -0.0206
vn -0.9645 -0.2596 0.0494
vt 0.635496 0.515388
vt 0.623430 0.043450
vt 0.619490 0.515254
vt 0.534320 0.514543
vt 0.521228 0.042597
vt 0.517289 0.514401
vt 0.647954 0.515492
vt 0.639436 0.043584
vt 0.550381 0.514677
vt 0.538260 0.042739
vt 0.489220 0.042329
vt 0.466123 0.513974
vt 0.485280 0.514134
vt 0.666347 0.043808
vt 0.662407 0.515613
vt 0.566736 0.514814
vt 0.554321 0.042873
vt 0.449373 0.041997
vt 0.445433 0.513801
vt 0.674810 0.515716
vt 0.585745 0.043135
vt 0.581806 0.514940
vt 0.691783 0.044021
vt 0.687843 0.515825
vt 0.596749 0.043227
vt 0.592809 0.515031
vt 0.431002 0.041843
vt 0.427062 0.513647
vt 0.697640 0.515907
vt 0.603441 0.515120
vt 0.501715 0.514271
vt 0.651894 0.043688
vt 0.470063 0.042169
vt 0.570676 0.043010
vt 0.678750 0.043912
vt 0.701580 0.044103
vt 0.607381 0.043316
vt 0.505655 0.042467
s 1
usemtl mat_garage_poster
f 211/200/144 229/201/145 210/202/145
f 204/203/146 222/204/147 203/205/147
f 212/206/148 230/207/144 211/200/144
f 205/208/149 223/209/146 204/203/146
f 220/210/150 198/211/151 201/212/152
f 232/213/153 212/206/148 213/214/154
f 206/215/155 224/216/149 205/208/149
f 198/211/151 218/217/156 199/218/156
f 214/219/157 232/213/153 213/214/154
f 226/220/158 206/215/155 207/221/158
f 234/222/159 214/219/157 215/223/159
f 227/224/160 207/221/158 208/225/160
f 199/218/156 219/226/161 200/227/161
f 216/228/162 234/222/159 215/223/159
f 209/229/163 227/224/160 208/225/160
f 202/230/164 220/210/150 201/212/152
f 229/201/145 209/229/163 210/202/145
f 222/204/147 202/230/164 203/205/147
f 211/200/144 230/207/144 229/201/145
f 204/203/146 223/209/146 222/204/147
f 212/206/148 231/231/148 230/207/144
f 205/208/149 224/216/149 223/209/146
f 220/210/150 217/232/151 198/211/151
f 232/213/153 231/231/148 212/206/148
f 206/215/155 225/233/155 224/216/149
f 198/211/151 217/232/151 218/217/156
f 214/219/157 233/234/157 232/213/153
f 226/220/158 225/233/155 206/215/155
f 234/222/159 233/234/157 214/219/157
f 227/224/160 226/220/158 207/221/158
f 199/218/156 218/217/156 219/226/161
f 216/228/162 235/235/162 234/222/159
f 209/229/163 228/236/163 227/224/160
f 202/230/164 221/237/164 220/210/150
f 229/201/145 228/236/163 209/229/163
f 222/204/147 221/237/164 202/230/164
o prop_garage_blueprint.004
v -0.069355 1.666824 -2.892951
v -0.100266 1.665452 -2.896701
v -0.123973 1.679413 -2.899696
v -0.048642 1.686779 -2.890589
v -0.043378 1.710968 -2.890140
v -0.052595 1.732502 -2.891431
v -0.074062 1.746288 -2.894152
v -0.098077 1.746649 -2.897077
v -0.117977 1.732307 -2.899385
v -0.125650 1.710956 -2.900149
v -0.123549 1.694518 -2.899764
v -0.113628 1.682011 -2.898458
v -0.092330 1.670888 -2.895778
v -0.069281 1.677415 -2.893026
v -0.058687 1.692862 -2.891859
v -0.060378 1.714566 -2.892236
v -0.072019 1.729099 -2.893768
v -0.091377 1.731366 -2.896141
v -0.104315 1.724429 -2.897660
v -0.155194 1.672406 -2.187430
v -0.186106 1.671034 -2.191180
v -0.209813 1.684995 -2.194175
v -0.134481 1.692361 -2.185068
v -0.129217 1.716550 -2.184618
v -0.138435 1.738084 -2.185910
v -0.159902 1.751870 -2.188631
v -0.183916 1.752231 -2.191556
v -0.203816 1.737889 -2.193864
v -0.211489 1.716537 -2.194628
v -0.209388 1.700100 -2.194243
v -0.199467 1.687593 -2.192937
v -0.178169 1.676470 -2.190258
v -0.155121 1.682997 -2.187505
v -0.144526 1.698443 -2.186338
v -0.146218 1.720147 -2.186716
v -0.157859 1.734680 -2.188247
v -0.177217 1.736948 -2.190620
v -0.190154 1.730010 -2.192139
vn 0.5764 -0.8136 0.0766
vn -0.1020 -0.9948 -0.0045
vn 0.2858 0.9579 0.0272
vn 0.7562 0.6486 0.0869
vn 0.7562 0.6485 0.0869
vn 0.9585 -0.2593 0.1187
vn -0.2955 0.9544 -0.0435
vn 0.8654 -0.4891 0.1092
vn 0.3892 -0.9195 0.0546
vn 0.9224 0.3704 0.1093
vn 0.9224 0.3703 0.1093
vn -0.7909 0.6035 -0.1010
vn -0.7909 0.6036 -0.1010
vn -0.2392 -0.9707 -0.0214
vn 0.4798 0.8759 0.0514
vn -0.9867 0.1086 -0.1209
vn -0.1834 0.9826 -0.0301
vn -0.9140 -0.3911 -0.1081
vn -0.5016 -0.8634 -0.0542
vn -0.4659 0.8826 -0.0637
vn -0.4657 0.8826 -0.0636
vn -0.6304 -0.7731 -0.0706
vn 0.9882 0.0963 0.1195
vn 0.9882 0.0964 0.1195
vn -0.9867 0.1085 -0.1209
vn -0.1835 0.9826 -0.0301
vt 0.639436 0.043584
vt 0.619490 0.515254
vt 0.635496 0.515388
vt 0.534320 0.514543
vt 0.521228 0.042597
vt 0.517289 0.514401
vt 0.651894 0.043688
vt 0.647954 0.515492
vt 0.554321 0.042873
vt 0.550381 0.514677
vt 0.485280 0.514134
vt 0.470063 0.042169
vt 0.466123 0.513974
vt 0.666347 0.043808
vt 0.662407 0.515613
vt 0.570676 0.043010
vt 0.566736 0.514814
vt 0.445433 0.513801
vt 0.678750 0.043912
vt 0.674810 0.515716
vt 0.581806 0.514940
vt 0.687843 0.515825
vt 0.596749 0.043227
vt 0.592809 0.515031
vt 0.431002 0.041843
vt 0.427062 0.513647
vt 0.701580 0.044103
vt 0.697640 0.515907
vt 0.607381 0.043316
vt 0.603441 0.515120
vt 0.501715 0.514271
vt 0.489220 0.042329
vt 0.505655 0.042467
vt 0.623430 0.043450
vt 0.538260 0.042739
vt 0.449373 0.041997
vt 0.585745 0.043135
vt 0.691783 0.044021
s 1
usemtl mat_garage_poster
f 268/238/165 248/239/166 249/240/165
f 242/241/167 260/242/168 241/243/169
f 269/244/170 249/240/165 250/245/170
f 262/246/171 242/241/167 243/247/171
f 239/248/172 255/249/173 236/250/173
f 270/251/174 250/245/170 251/252/175
f 263/253/176 243/247/171 244/254/177
f 255/249/173 237/255/178 236/250/173
f 271/256/179 251/252/175 252/257/179
f 245/258/180 263/253/176 244/254/177
f 253/259/181 271/256/179 252/257/179
f 265/260/182 245/258/180 246/261/182
f 237/255/178 257/262/183 238/263/183
f 273/264/184 253/259/181 254/265/185
f 266/266/186 246/261/182 247/267/186
f 240/268/187 258/269/172 239/248/172
f 248/239/166 266/266/186 247/267/186
f 241/243/169 259/270/188 240/268/187
f 268/238/165 267/271/166 248/239/166
f 242/241/167 261/272/167 260/242/168
f 269/244/170 268/238/165 249/240/165
f 262/246/171 261/272/167 242/241/167
f 239/248/172 258/269/172 255/249/173
f 270/251/174 269/244/170 250/245/170
f 263/253/176 262/246/171 243/247/171
f 255/249/173 256/273/178 237/255/178
f 271/256/179 270/251/174 251/252/175
f 245/258/180 264/274/189 263/253/176
f 253/259/181 272/275/190 271/256/179
f 265/260/182 264/274/189 245/258/180
f 237/255/178 256/273/178 257/262/183
f 273/264/184 272/275/190 253/259/181
f 266/266/186 265/260/182 246/261/182
f 240/268/187 259/270/188 258/269/172
f 248/239/166 267/271/166 266/266/186
f 241/243/169 260/242/168 259/270/188
o prop_garage_blueprint.005
v 0.030380 1.735577 -2.946532
v -0.000687 1.734205 -2.944420
v -0.024535 1.748166 -2.942917
v 0.051168 1.755532 -2.948095
v 0.056423 1.779721 -2.948641
v 0.047127 1.801255 -2.948182
v 0.025531 1.815041 -2.946830
v 0.001393 1.815402 -2.945200
v -0.018587 1.801060 -2.943736
v -0.026267 1.779709 -2.943048
v -0.024131 1.763271 -2.943064
v -0.014141 1.750764 -2.943641
v 0.007282 1.739641 -2.945002
v 0.030438 1.746168 -2.946620
v 0.041063 1.761615 -2.947460
v 0.039331 1.783319 -2.947513
v 0.027609 1.797852 -2.946835
v 0.008149 1.800119 -2.945537
v -0.004843 1.793182 -2.944603
v 0.078337 1.741159 -2.237429
v 0.047270 1.739787 -2.235317
v 0.023422 1.753748 -2.233814
v 0.099125 1.761114 -2.238991
v 0.104381 1.785303 -2.239537
v 0.095084 1.806837 -2.239078
v 0.073488 1.820623 -2.237726
v 0.049351 1.820984 -2.236097
v 0.029371 1.806642 -2.234632
v 0.021690 1.785290 -2.233945
v 0.023827 1.768853 -2.233960
v 0.033816 1.756346 -2.234537
v 0.055239 1.745223 -2.235898
v 0.078395 1.751750 -2.237516
v 0.089020 1.767196 -2.238356
v 0.087288 1.788900 -2.238410
v 0.075566 1.803433 -2.237731
v 0.056106 1.805701 -2.236433
v 0.043114 1.798763 -2.235500
vn 0.5805 -0.8136 -0.0329
vn -0.1011 -0.9948 0.0147
vn 0.2858 0.9579 -0.0269
vn 0.7591 0.6486 -0.0564
vn 0.9637 -0.2593 -0.0631
vn -0.2984 0.9544 0.0127
vn 0.8705 -0.4891 -0.0550
vn 0.3925 -0.9195 -0.0193
vn 0.9266 0.3704 -0.0656
vn -0.7958 0.6035 0.0491
vn -0.2389 -0.9707 0.0238
vn 0.4809 0.8759 -0.0394
vn -0.9919 0.1085 0.0662
vn -0.7958 0.6036 0.0491
vn -0.1858 0.9826 0.0048
vn -0.9180 -0.3911 0.0652
vn -0.5029 -0.8634 0.0408
vn -0.4695 0.8826 0.0248
vn -0.6324 -0.7731 0.0489
vn 0.9930 0.0963 -0.0679
vn 0.4810 0.8759 -0.0394
vt 0.639436 0.043584
vt 0.619490 0.515254
vt 0.635496 0.515388
vt 0.534320 0.514543
vt 0.521228 0.042597
vt 0.517289 0.514401
vt 0.647954 0.515492
vt 0.554321 0.042873
vt 0.550381 0.514677
vt 0.485280 0.514134
vt 0.470063 0.042169
vt 0.466123 0.513974
vt 0.662407 0.515613
vt 0.651894 0.043688
vt 0.566736 0.514814
vt 0.445433 0.513801
vt 0.674810 0.515716
vt 0.666347 0.043808
vt 0.581806 0.514940
vt 0.570676 0.043010
vt 0.691783 0.044021
vt 0.687843 0.515825
vt 0.596749 0.043227
vt 0.592809 0.515031
vt 0.449373 0.041997
vt 0.427062 0.513647
vt 0.697640 0.515907
vt 0.603441 0.515120
vt 0.505655 0.042467
vt 0.501715 0.514271
vt 0.607381 0.043316
vt 0.623430 0.043450
vt 0.538260 0.042739
vt 0.489220 0.042329
vt 0.678750 0.043912
vt 0.585745 0.043135
vt 0.431002 0.041843
vt 0.701580 0.044103
s 1
usemtl mat_garage_poster
f 306/276/191 286/277/192 287/278/191
f 280/279/193 298/280/194 279/281/194
f 288/282/195 306/276/191 287/278/191
f 300/283/196 280/279/193 281/284/196
f 277/285/197 293/286/198 274/287/198
f 289/288/199 307/289/195 288/282/195
f 282/290/200 300/283/196 281/284/196
f 293/286/198 275/291/201 274/287/198
f 290/292/202 308/293/199 289/288/199
f 283/294/203 301/295/204 282/290/200
f 310/296/205 290/292/202 291/297/205
f 303/298/206 283/294/203 284/299/206
f 294/300/201 276/301/207 275/291/201
f 292/302/208 310/296/205 291/297/205
f 285/303/209 303/298/206 284/299/206
f 297/304/210 277/285/197 278/305/210
f 286/277/192 304/306/209 285/303/209
f 298/280/194 278/305/210 279/281/194
f 306/276/191 305/307/192 286/277/192
f 280/279/193 299/308/193 298/280/194
f 288/282/195 307/289/195 306/276/191
f 300/283/196 299/308/193 280/279/193
f 277/285/197 296/309/197 293/286/198
f 289/288/199 308/293/199 307/289/195
f 282/290/200 301/295/204 300/283/196
f 293/286/198 294/300/201 275/291/201
f 290/292/202 309/310/211 308/293/199
f 283/294/203 302/311/203 301/295/204
f 310/296/205 309/310/211 290/292/202
f 303/298/206 302/311/203 283/294/203
f 294/300/201 295/312/207 276/301/207
f 292/302/208 311/313/208 310/296/205
f 285/303/209 304/306/209 303/298/206
f 297/304/210 296/309/197 277/285/197
f 286/277/192 305/307/192 304/306/209
f 298/280/194 297/304/210 278/305/210
o prop_garage_blueprint.006
v -2.716640 0.276522 1.057275
v -2.735943 0.275150 1.081708
v -2.750849 0.289110 1.100385
v -2.703835 0.296477 1.040825
v -2.700709 0.320666 1.036565
v -2.706613 0.342200 1.043761
v -2.720118 0.355986 1.060668
v -2.735124 0.356347 1.079643
v -2.747460 0.342005 1.095428
v -2.752110 0.320653 1.101580
v -2.750686 0.304216 1.099987
v -2.744403 0.291709 1.092199
v -2.731022 0.280585 1.075414
v -2.716666 0.287113 1.057174
v -2.710151 0.302559 1.048738
v -2.711354 0.324263 1.049985
v -2.718726 0.338796 1.059124
v -2.730836 0.341064 1.074412
v -2.738871 0.334126 1.084664
v -2.159114 0.282103 1.498061
v -2.178417 0.280731 1.522495
v -2.193323 0.294692 1.541171
v -2.146309 0.302059 1.481611
v -2.143183 0.326247 1.477352
v -2.149087 0.347782 1.484547
v -2.162592 0.361568 1.501454
v -2.177598 0.361928 1.520430
v -2.189934 0.347586 1.536214
v -2.194584 0.326235 1.542366
v -2.193160 0.309797 1.540773
v -2.186877 0.297291 1.532985
v -2.173496 0.286167 1.516200
v -2.159140 0.292694 1.497960
v -2.152625 0.308141 1.489524
v -2.153828 0.329845 1.490771
v -2.161200 0.344378 1.499911
v -2.173309 0.346646 1.515199
v -2.181345 0.339708 1.525451
vn 0.3656 -0.8136 -0.4521
vn -0.0570 -0.9948 0.0847
vn 0.1721 0.9579 -0.2298
vn 0.4681 0.6486 -0.6002
vn 0.6006 -0.2593 -0.7563
vn -0.1911 0.9543 0.2296
vn -0.1911 0.9544 0.2296
vn 0.5440 -0.4891 -0.6818
vn 0.2494 -0.9195 -0.3038
vn 0.5738 0.3704 -0.7305
vn -0.4982 0.6036 0.6225
vn -0.1429 -0.9707 0.1930
vn 0.2938 0.8759 -0.3828
vn 0.2939 0.8759 -0.3828
vn -0.6172 0.1085 0.7793
vn -0.1213 0.9826 0.1409
vn -0.5684 -0.3911 0.7239
vn -0.3076 -0.8634 0.3999
vn -0.3075 -0.8634 0.3999
vn -0.2970 0.8826 0.3645
vn -0.3886 -0.7731 0.5013
vn -0.5684 -0.3912 0.7238
vn 0.6167 0.0964 -0.7813
vn 0.6167 0.0963 -0.7813
vn 0.4681 0.6485 -0.6003
vn -0.1212 0.9826 0.1409
vt 0.635496 0.515388
vt 0.623430 0.043450
vt 0.619490 0.515254
vt 0.538260 0.042739
vt 0.517289 0.514401
vt 0.534320 0.514543
vt 0.651894 0.043688
vt 0.647954 0.515492
vt 0.554321 0.042873
vt 0.550381 0.514677
vt 0.489220 0.042329
vt 0.466123 0.513974
vt 0.485280 0.514134
vt 0.662407 0.515613
vt 0.570676 0.043010
vt 0.566736 0.514814
vt 0.470063 0.042169
vt 0.445433 0.513801
vt 0.678750 0.043912
vt 0.674810 0.515716
vt 0.585745 0.043135
vt 0.581806 0.514940
vt 0.687843 0.515825
vt 0.592809 0.515031
vt 0.431002 0.041843
vt 0.427062 0.513647
vt 0.701580 0.044103
vt 0.697640 0.515907
vt 0.603441 0.515120
vt 0.596749 0.043227
vt 0.501715 0.514271
vt 0.505655 0.042467
vt 0.639436 0.043584
vt 0.521228 0.042597
vt 0.666347 0.043808
vt 0.449373 0.041997
vt 0.691783 0.044021
vt 0.607381 0.043316
s 1
usemtl mat_garage_poster
f 325/314/212 343/315/213 324/316/213
f 337/317/214 317/318/215 318/319/214
f 345/320/216 325/314/212 326/321/216
f 338/322/217 318/319/214 319/323/218
f 334/324/219 312/325/220 315/326/219
f 327/327/221 345/320/216 326/321/216
f 339/328/222 319/323/218 320/329/222
f 331/330/220 313/331/223 312/325/220
f 347/332/224 327/327/221 328/333/225
f 340/334/226 320/329/222 321/335/226
f 329/336/227 347/332/224 328/333/225
f 322/337/228 340/334/226 321/335/226
f 313/331/223 333/338/229 314/339/230
f 349/340/231 329/336/227 330/341/231
f 323/342/232 341/343/233 322/337/228
f 316/344/234 334/324/219 315/326/219
f 343/315/213 323/342/232 324/316/213
f 317/318/215 335/345/235 316/344/234
f 325/314/212 344/346/212 343/315/213
f 337/317/214 336/347/236 317/318/215
f 345/320/216 344/346/212 325/314/212
f 338/322/217 337/317/214 318/319/214
f 334/324/219 331/330/220 312/325/220
f 327/327/221 346/348/221 345/320/216
f 339/328/222 338/322/217 319/323/218
f 331/330/220 332/349/223 313/331/223
f 347/332/224 346/348/221 327/327/221
f 340/334/226 339/328/222 320/329/222
f 329/336/227 348/350/237 347/332/224
f 322/337/228 341/343/233 340/334/226
f 313/331/223 332/349/223 333/338/229
f 349/340/231 348/350/237 329/336/227
f 323/342/232 342/351/232 341/343/233
f 316/344/234 335/345/235 334/324/219
f 343/315/213 342/351/232 323/342/232
f 317/318/215 336/347/236 335/345/235
