# Blender 4.5.3 LTS
# www.blender.org
mtllib mat_garage_metal.mtl
o prop_garage_floor.001
v 6.066892 0.012612 -0.615788
v 5.998573 0.012612 -0.547468
v 5.998573 -0.121793 -0.547468
v 6.066892 -0.000988 -0.615788
v 0.392376 0.012612 -0.615788
v 0.460695 0.012612 -0.547468
v 0.460695 -0.121793 -0.547468
v 0.392376 -0.000988 -0.615788
v 6.066892 0.012612 0.594230
v 5.998573 0.012612 0.525910
v 5.998573 -0.121793 0.525910
v 6.066892 -0.000988 0.594230
v 0.392376 0.012612 0.594230
v 0.460695 0.012612 0.525910
v 0.460695 -0.121793 0.525910
v 0.392376 -0.000988 0.594230
vn -0.0000 -0.0000 1.0000
vn -1.0000 -0.0000 -0.0000
vn -0.0000 1.0000 -0.0000
vn -0.0000 -0.0000 -1.0000
vn 1.0000 -0.0000 -0.0000
vt -0.036646 1.728907
vt 0.030561 -1.040205
vt 0.030561 1.728907
vt 0.175246 -0.612566
vt 0.182047 -0.007519
vt 0.175246 -0.007519
vt -0.051660 1.797230
vt -0.085821 -1.006043
vt -0.051660 -1.040205
vt -0.044388 1.797230
vt -0.051189 -1.040204
vt -0.044388 -1.040204
vt -0.043917 -0.797230
vt -0.037117 2.040205
vt -0.043917 2.040205
vt -0.017160 -0.578404
vt -0.051322 -0.007520
vt -0.051322 -0.612566
vt 0.249724 -0.075843
vt 0.182518 -0.612566
vt 0.249724 -0.612566
vt 0.560510 -0.612566
vt 0.526348 -0.041682
vt 0.526348 -0.578405
vt 0.250195 -0.612566
vt 0.317402 -0.075843
vt 0.250195 -0.075843
vt 0.031032 -1.040204
vt 0.098239 1.728907
vt 0.031032 1.728907
vt -0.120454 -0.763068
vt -0.086292 2.040204
vt -0.120454 2.006043
vt 0.167975 -0.007520
vt 0.174775 -0.612566
vt 0.174776 -0.007520
vt -0.036646 -1.040205
vt 0.182047 -0.612566
vt -0.085821 1.763069
vt -0.051189 1.797230
vt -0.037117 -0.797230
vt -0.017160 -0.041682
vt 0.182518 -0.075843
vt 0.560510 -0.007521
vt 0.317402 -0.612566
vt 0.098239 -1.040204
vt -0.086293 -0.797230
vt 0.167975 -0.612566
s 1
usemtl mat_garage_metal
f 7/1/1 2/2/1 6/3/1
f 5/4/2 16/5/2 13/6/2
f 5/7/3 2/8/3 1/9/3
f 13/10/1 12/11/1 9/12/1
f 8/13/4 1/14/4 4/15/4
f 14/16/3 5/17/3 13/18/3
f 14/19/5 7/20/5 6/21/5
f 9/22/3 2/23/3 10/24/3
f 11/25/2 2/26/2 3/27/2
f 10/28/4 15/29/4 14/30/4
f 14/31/3 9/32/3 10/33/3
f 12/34/5 1/35/5 9/36/5
f 7/1/1 3/37/1 2/2/1
f 5/4/2 8/38/2 16/5/2
f 5/7/3 6/39/3 2/8/3
f 13/10/1 16/40/1 12/11/1
f 8/13/4 5/41/4 1/14/4
f 14/16/3 6/42/3 5/17/3
f 14/19/5 15/43/5 7/20/5
f 9/22/3 1/44/3 2/23/3
f 11/25/2 10/45/2 2/26/2
f 10/28/4 11/46/4 15/29/4
f 14/31/3 13/47/3 9/32/3
f 12/34/5 4/48/5 1/35/5
o prop_garage_pit_cover
v 0.438928 0.012841 0.536732
v 0.523339 0.048326 0.445307
v 0.438928 0.012841 -0.560982
v 0.523339 0.048326 -0.469557
v 6.020340 0.012841 0.536732
v 5.935930 0.048326 0.445307
v 6.020340 0.012841 -0.560982
v 5.935930 0.048326 -0.469557
v 0.496907 0.048326 0.470218
v 0.496907 0.048326 -0.494468
v 5.962360 0.048326 -0.494468
v 5.962360 0.048326 0.470218
v 0.523339 0.039244 0.445307
v 0.523339 0.039244 -0.469557
v 5.935930 0.039244 -0.469557
v 5.935930 0.039244 0.445307
vn -0.0000 1.0000 -0.0000
vn -0.5220 0.8529 -0.0000
vn -0.0000 0.8823 -0.4707
vn 0.5220 0.8529 -0.0000
vn -0.0000 0.8823 0.4707
vn -0.0000 -0.0000 1.0000
vn -1.0000 -0.0000 -0.0000
vn 1.0000 -0.0000 -0.0000
vn -0.0000 -0.0000 -1.0000
vt 1.071869 5.695881
vt -0.812861 -4.813380
vt 1.071868 -4.813379
vt 0.717581 -2.256282
vt 0.648945 -1.147614
vt 0.648945 -2.327792
vt -0.550463 -2.327793
vt -0.470632 3.269044
vt -0.550463 3.327793
vt 0.787079 -2.256282
vt 0.718443 -1.147614
vt 0.718443 -2.327793
vt -0.389938 -2.269042
vt -0.469768 3.327792
vt -0.469769 -2.327792
vt 0.621301 3.183511
vt 0.621301 -2.301010
vt -0.389075 3.210293
vt -0.362292 3.183511
vt 0.648083 -2.327792
vt 0.648083 3.210293
vt -0.362292 -2.301010
vt -0.389075 -2.327792
vt -0.812860 5.695881
vt 0.717581 -1.219125
vt -0.470631 -2.269043
vt 0.787079 -1.219124
vt -0.389937 3.269043
s 1
usemtl mat_garage_floor
f 30/49/6 32/50/6 31/51/6
f 30/49/6 29/72/6 32/50/6
usemtl mat_garage_metal
f 25/52/7 19/53/7 17/54/7
f 19/55/8 27/56/8 23/57/8
f 27/58/9 21/59/9 23/60/9
f 28/61/10 17/62/10 21/63/10
f 20/64/11 31/65/11 24/65/11
f 20/64/6 25/66/6 18/67/6
f 20/64/6 27/68/6 26/69/6
f 22/70/6 27/68/6 24/65/6
f 18/67/6 28/71/6 22/70/6
f 24/65/12 32/70/12 22/70/12
f 18/67/13 30/64/13 20/64/13
f 22/70/14 29/67/14 18/67/14
f 25/52/7 26/73/7 19/53/7
f 19/55/8 26/74/8 27/56/8
f 27/58/9 28/75/9 21/59/9
f 28/61/10 25/76/10 17/62/10
f 20/64/11 30/64/11 31/65/11
f 20/64/6 26/69/6 25/66/6
f 20/64/6 24/65/6 27/68/6
f 22/70/6 28/71/6 27/68/6
f 18/67/6 25/66/6 28/71/6
f 24/65/12 31/65/12 32/70/12
f 18/67/13 29/67/13 30/64/13
f 22/70/14 32/70/14 29/67/14
