# Blender 4.5.3 LTS
# www.blender.org
mtllib mat_garage_cable.mtl
o dec_garage_cable
v 2.038812 1.920465 -2.886721
v 2.227323 1.920465 -2.886721
v 2.006959 1.922399 -2.886721
v 2.234372 1.922399 -2.886721
v 2.006959 1.546263 -2.886721
v 2.234372 1.546263 -2.886721
v 7.106380 1.721946 2.392695
v 7.106380 1.721946 2.581205
v 7.106380 3.246985 2.392695
v 7.106380 3.246985 2.581205
v 7.106380 3.296363 2.387099
v 7.106380 3.345153 2.569186
v 7.106380 3.342610 2.368914
v 7.106380 3.436865 2.532169
v 7.106380 3.382575 2.339379
v 7.106380 3.515872 2.472676
v 7.106380 3.413534 2.300506
v 7.106380 3.576788 2.394762
v 7.106380 3.433377 2.254946
v 7.106380 3.615464 2.303736
v 7.106380 3.447186 2.205802
v 7.106380 3.635696 2.205802
v 7.107158 1.722022 2.360758
v 7.107158 1.722022 2.588171
v 7.107158 1.345886 2.360758
v 7.107158 1.345886 2.588171
v 2.038812 3.787532 0.933578
v 2.227323 3.787532 0.933578
v -2.340849 3.422911 -3.007464
v -2.340849 3.611422 -3.007464
v -2.429434 3.620865 -3.006934
v -2.188950 3.620865 -3.006934
v -2.429434 3.378279 -3.006934
v -2.188950 3.378279 -3.006934
v 1.987794 3.615649 -2.885393
v 2.228279 3.615649 -2.885393
v 1.987794 3.373063 -2.885393
v 2.228279 3.373063 -2.885393
v 1.991684 3.422911 -2.887553
v 1.991684 3.611423 -2.887553
v 1.883038 3.422911 -2.887553
v 1.858860 3.422911 -2.911732
v 1.858860 3.611422 -2.911732
v 1.883038 3.611423 -2.887553
v 1.858860 3.422911 -2.969074
v 1.819335 3.422911 -3.007465
v 1.847283 3.422911 -2.997022
v 1.819335 3.611422 -3.007465
v 1.858860 3.611422 -2.969074
v 1.847283 3.611422 -2.997022
v 2.038812 3.730949 -2.886721
v 2.038812 3.787532 -2.830138
v 2.038812 3.770960 -2.870149
v 2.227323 3.787532 -2.830138
v 2.227323 3.730949 -2.886721
v 2.227323 3.770960 -2.870149
v -2.391059 1.543866 -3.010284
v -2.202549 1.543866 -3.010284
v -2.422912 1.543669 -3.010284
v -2.195499 1.543669 -3.010284
v -2.422912 1.191797 -3.010284
v -2.195499 1.191797 -3.010284
v -2.391059 3.376483 -3.010284
v -2.202549 3.376483 -3.010284
v 6.883130 3.447186 -2.887779
v 6.859102 3.447186 -2.911807
v 6.859102 3.635696 -2.911807
v 6.883130 3.635696 -2.887779
v 2.229055 3.635696 -2.887612
v 2.229054 3.447186 -2.887612
v 2.333770 3.635696 -2.887612
v 2.358301 3.635696 -2.912143
v 2.358301 3.447186 -2.912143
v 2.333769 3.447186 -2.887612
v -2.430280 3.422866 -3.010533
v -2.430280 3.611377 -3.010533
v -2.641298 3.422866 -2.912244
v -2.666088 3.422866 -2.887454
v -2.666088 3.611377 -2.887454
v -2.641298 3.611377 -2.912244
v -2.642829 3.611377 2.988276
v -2.642829 3.422866 2.988276
v -2.526977 3.611377 2.988276
v -2.526977 3.422866 2.988276
v -2.642829 3.611377 2.886072
v -2.666438 3.611377 2.862463
v -2.666438 3.422866 2.862463
v -2.642829 3.422866 2.886072
v -2.889857 3.422866 2.804545
v -2.831938 3.422866 2.862463
v -2.872893 3.422866 2.845500
v -2.831938 3.611377 2.862463
v -2.889857 3.611377 2.804545
v -2.872893 3.611377 2.845500
v -2.845608 3.422866 -2.887454
v -2.889857 3.422866 -2.843206
v -2.876896 3.422866 -2.874494
v -2.889857 3.611377 -2.843206
v -2.845608 3.611377 -2.887454
v -2.876896 3.611377 -2.874494
v -2.597049 3.422866 -3.010533
v -2.641298 3.422866 -2.966285
v -2.628337 3.422866 -2.997572
v -2.641298 3.611377 -2.966285
v -2.597049 3.611377 -3.010533
v -2.628337 3.611377 -2.997572
v 2.402428 3.447186 -3.009763
v 2.358301 3.447186 -2.965636
v 2.371225 3.447186 -2.996838
v 2.358301 3.635696 -2.965636
v 2.402428 3.635696 -3.009763
v 2.371226 3.635696 -2.996838
v 7.106380 3.447186 -2.840135
v 7.058735 3.447186 -2.887779
v 7.092425 3.447186 -2.873825
v 7.058736 3.635696 -2.887779
v 7.106380 3.635696 -2.840135
v 7.092426 3.635696 -2.873825
v 6.859102 3.447186 -2.962119
v 6.811457 3.447186 -3.009763
v 6.845147 3.447186 -2.995809
v 6.811458 3.635696 -3.009763
v 6.859102 3.635696 -2.962119
v 6.845148 3.635696 -2.995809
v -2.889857 3.424267 0.753967
v -2.889857 3.611377 0.753967
v -2.889857 3.424267 -0.780948
v -2.889857 3.611377 -0.780948
v -2.487173 2.909652 0.753967
v -2.347761 2.909652 0.753967
v -2.487173 2.909652 -0.780948
v -2.347761 2.909652 -0.780948
v -2.347761 2.880009 0.446984
v -2.347761 2.862401 0.140001
v -2.347761 2.862401 -0.166982
v -2.347761 2.880009 -0.473965
v -2.487173 2.880009 -0.473965
v -2.487173 2.862401 -0.166982
v -2.487173 2.862401 0.140001
v -2.487173 2.880009 0.446984
v -2.887467 3.620261 0.748410
v -2.887467 3.620261 0.507926
v -2.887467 3.377675 0.748410
v -2.887467 3.377675 0.507926
v -2.890852 1.596738 0.545244
v -2.890852 1.596738 0.732354
v -2.890852 3.382209 0.545244
v -2.890852 3.382209 0.732354
v -2.890852 1.596692 0.545244
v -2.890852 1.596692 0.732354
v -2.890852 1.315523 0.545244
v -2.890852 1.315523 0.732354
v 7.103738 3.388647 -2.334801
v 7.103738 3.388647 -2.575286
v 7.103738 3.631233 -2.334802
v 7.103738 3.631233 -2.575287
v 7.107355 3.515559 -2.564856
v 7.107355 3.515559 -2.377746
v 7.105012 -0.133416 -2.564856
v 7.105012 -0.133416 -2.377746
v -2.444339 3.601146 2.988276
v -2.493129 3.419058 2.988276
v -2.367165 3.569875 2.988276
v -2.461421 3.406620 2.988276
v -2.300714 3.519696 2.988275
v -2.434011 3.386398 2.988275
v -2.249514 3.454028 2.988275
v -2.412770 3.359772 2.988275
v -2.217056 3.377345 2.988275
v -2.399144 3.328555 2.988275
v -2.205550 3.294875 2.988275
v -2.394062 3.294875 2.988275
v -2.205550 -0.016961 2.988275
v -2.394062 -0.016961 2.988275
vn -0.0000 -0.9808 0.1951
vn -0.0000 -1.0000 -0.0000
vn -0.0000 -0.0000 1.0000
vn -1.0000 -0.0000 -0.0000
vn -0.1951 -0.0000 0.9808
vn 0.1951 -0.0000 0.9808
vn -0.9808 -0.0000 0.1951
vn -0.7071 -0.0000 0.7071
vn -0.1779 -0.0000 0.9841
vn -0.3500 -0.0000 0.9367
vn -0.1778 -0.0000 0.9841
vn -0.9239 -0.0000 0.3827
vn -0.0000 -0.9239 0.3827
vn -0.0000 -0.3827 0.9239
vn -0.0000 -0.1951 0.9808
vn 0.7071 -0.0000 0.7071
vn 1.0000 -0.0000 -0.0000
vn 0.9808 -0.0000 0.1951
vn -0.0000 -0.0000 -1.0000
vn 0.7071 -0.0000 -0.7071
vn 0.9808 -0.0000 -0.1951
vn 0.9239 -0.0000 -0.3827
vn 0.3827 -0.0000 -0.9239
vn 0.1951 -0.0000 -0.9808
vn 0.9239 -0.0000 0.3827
vn 0.3827 -0.0000 0.9239
vn -0.3827 -0.0000 0.9239
vn -0.0000 -0.9971 0.0767
vn -0.0000 -0.9954 0.0961
vn -0.0000 -0.9954 -0.0961
vn -0.0000 -0.9971 -0.0767
vn -0.0000 -0.9996 -0.0286
vn -0.0000 -0.9996 0.0286
vn -1.0000 0.0006 -0.0000
vt 3.737169 0.488640
vt 0.863490 0.344708
vt 3.737169 0.344707
vt 0.405610 0.985877
vt 0.506459 0.819076
vt 0.405610 0.819076
vt 1.389907 0.487756
vt -0.020344 0.346642
vt 1.389907 0.346642
vt 4.086335 0.489087
vt 4.022655 0.348212
vt 4.086335 0.348212
vt 4.022655 0.489087
vt 3.956891 0.348212
vt 3.956433 0.489087
vt 3.889448 0.348212
vt 3.891801 0.489087
vt 3.820964 0.348212
vt 3.822408 0.489087
vt 3.760686 0.348212
vt 3.762660 0.489087
vt 3.691382 0.348212
vt -0.396810 0.346480
vt -3.703156 0.486812
vt -3.703112 0.345449
vt 0.405977 0.985877
vt 0.506826 0.819076
vt 0.405977 0.819076
vt -0.855039 0.345129
vt -0.811403 0.488584
vt -0.855039 0.488584
vt 0.538329 0.960380
vt 0.648051 0.849700
vt 0.538329 0.849700
vt -0.785382 0.345130
vt -0.785382 0.488584
vt -0.702704 0.488584
vt 2.107936 0.346642
vt 2.137790 0.487756
vt 2.107936 0.487756
vt -0.885117 0.345129
vt -0.885117 0.488584
vt -1.034371 0.346642
vt 3.780371 0.488640
vt -0.218674 0.346642
vt -0.175935 0.487756
vt -0.218674 0.487756
vt 1.191577 0.487756
vt -0.175935 0.346642
vt 1.191577 0.346642
vt 0.692154 0.985877
vt 0.793003 0.829836
vt 0.692154 0.829836
vt 1.208294 0.487757
vt 1.208294 0.346642
vt -3.819895 0.345413
vt -3.898463 0.486751
vt -3.898420 0.345389
vt 3.691339 0.489108
vt -0.092533 0.346575
vt 3.691382 0.347746
vt -0.278953 0.487880
vt -0.304390 0.346509
vt -0.278909 0.346517
vt -3.793922 0.486784
vt -3.793879 0.345421
vt -0.304434 0.487872
vt -0.342119 0.346497
vt 2.504698 0.345276
vt 2.545675 0.488218
vt 2.504698 0.488217
vt 2.478114 0.345275
vt 2.478114 0.488217
vt 2.597034 0.345275
vt 2.723490 0.488217
vt 2.597034 0.488216
vt 2.341990 0.345276
vt 2.341990 0.488217
vt -2.287415 0.488217
vt -2.375261 0.345276
vt -2.287415 0.345276
vt -2.184600 0.488217
vt -2.209917 0.345276
vt -2.184600 0.345276
vt -2.209917 0.488217
vt -1.991880 0.488217
vt -2.025493 0.345275
vt -1.991880 0.345275
vt -2.025493 0.488217
vt -2.059106 0.345275
vt -2.059106 0.488218
vt 2.290631 0.345275
vt 2.316310 0.488217
vt 2.290631 0.488217
vt 2.316310 0.345275
vt 2.545675 0.345276
vt 2.571355 0.488218
vt 2.571355 0.345275
vt -0.436992 0.345275
vt -3.728482 0.486804
vt -3.728438 0.345441
vt -3.753808 0.486796
vt -3.753765 0.345433
vt -0.092577 0.487938
vt -0.119878 0.346566
vt -0.147267 0.487920
vt -0.147224 0.346558
vt -0.342163 0.487860
vt -0.369465 0.346489
vt -0.369508 0.487852
vt 0.726886 0.488217
vt 0.726886 0.345275
vt -0.204216 0.450987
vt -0.204216 0.345275
vt 0.726886 0.450987
vt 0.494110 0.345275
vt 0.494111 0.450987
vt 0.261335 0.345275
vt 0.261335 0.450987
vt 0.028559 0.345275
vt 0.028559 0.450987
vt -0.626980 0.345275
vt 0.680471 0.980948
vt 0.781145 0.829667
vt 0.680471 0.829667
vt -2.527963 0.345276
vt 1.558443 0.479715
vt 1.518490 0.352117
vt 1.558443 0.352117
vt 1.518490 0.479715
vt 1.478538 0.352117
vt 1.478538 0.479715
vt 1.438586 0.352117
vt 1.438586 0.479715
vt 1.398633 0.352117
vt 1.398633 0.479715
vt 1.358681 0.352117
vt 1.358681 0.479715
vt 1.318728 0.352117
vt 1.318728 0.479715
vt -0.936740 0.352117
vt 0.863490 0.488640
vt 0.506459 0.985877
vt -0.020344 0.487756
vt 3.691339 0.489087
vt -0.396854 0.487843
vt 0.506826 0.985877
vt -0.811403 0.345129
vt 0.648051 0.960380
vt -0.702704 0.345129
vt 2.137790 0.346642
vt -1.034371 0.487756
vt 3.780371 0.344707
vt 0.793003 0.985877
vt -3.819937 0.486775
vt 2.723489 0.345275
vt -2.375262 0.488217
vt -0.436992 0.488217
vt -0.119922 0.487929
vt -0.436992 0.450987
vt -0.626980 0.488217
vt 0.781145 0.980948
vt -2.527963 0.488218
vt -0.936740 0.479715
s 1
usemtl mat_garage_cable
f 54/1/1 27/2/2 52/3/1
f 5/4/3 4/5/3 3/6/3
f 8/7/4 9/8/4 7/9/4
f 10/10/4 11/11/4 9/12/4
f 12/13/4 13/14/4 11/11/4
f 14/15/4 15/16/4 13/14/4
f 16/17/4 17/18/4 15/16/4
f 18/19/4 19/20/4 17/18/4
f 20/21/4 21/22/4 19/20/4
f 120/23/5 111/24/6 107/25/6
f 25/26/4 24/27/4 23/28/4
f 45/29/7 43/30/4 49/31/7
f 33/32/3 32/33/3 31/34/3
f 37/32/3 36/33/3 35/34/3
f 43/30/8 41/35/8 44/36/8
f 41/35/3 40/37/3 44/36/3
f 46/38/9 50/39/10 48/40/11
f 47/41/12 49/31/7 50/42/12
f 48/40/11 29/43/3 46/38/9
f 52/3/1 56/44/13 54/1/1
f 53/45/14 55/46/15 56/47/14
f 2/48/3 51/49/15 1/50/3
f 61/51/3 60/52/3 59/53/3
f 58/54/3 63/49/3 57/55/3
f 74/56/3 69/57/3 70/58/3
f 22/59/4 113/60/7 21/61/4
f 68/62/8 66/63/8 65/64/8
f 72/65/16 74/56/16 73/66/16
f 67/67/4 119/68/7 66/63/4
f 77/69/17 104/70/18 80/71/17
f 78/72/16 80/71/16 79/73/16
f 101/74/6 76/75/3 105/76/6
f 95/77/6 79/73/3 99/78/6
f 81/79/19 84/80/19 82/81/19
f 86/82/20 88/83/20 87/84/20
f 85/85/17 82/81/17 88/83/17
f 93/86/21 91/87/22 89/88/21
f 94/89/23 90/90/24 91/87/23
f 92/91/24 87/84/19 90/90/24
f 96/92/18 100/93/25 98/94/18
f 97/95/26 99/78/6 100/93/26
f 102/96/18 106/97/25 104/70/18
f 103/98/26 105/76/6 106/97/26
f 125/99/17 93/86/21 89/88/21
f 107/25/6 112/100/26 109/101/26
f 109/101/25 110/102/18 108/103/18
f 110/102/18 73/66/17 108/103/18
f 117/104/7 115/105/12 113/60/7
f 115/105/27 116/106/5 114/107/5
f 123/108/7 121/109/12 119/68/7
f 124/110/27 120/23/5 121/109/27
f 114/107/5 68/62/3 65/64/3
f 128/111/17 125/99/17 127/112/17
f 98/94/18 127/112/17 96/92/18
f 133/113/28 129/99/29 140/114/28
f 132/115/30 137/116/31 131/112/30
f 136/117/31 138/118/32 137/116/31
f 135/119/32 139/120/33 138/118/32
f 134/121/33 140/114/28 139/120/33
f 143/32/17 142/33/17 141/34/17
f 148/111/17 145/122/17 147/112/17
f 152/123/17 149/124/17 150/125/17
f 154/32/4 155/33/4 156/34/4
f 157/111/34 160/126/34 158/112/34
f 83/127/19 162/128/19 84/129/19
f 161/130/19 164/131/19 162/128/19
f 163/132/19 166/133/19 164/131/19
f 165/134/19 168/135/19 166/133/19
f 167/136/19 170/137/19 168/135/19
f 169/138/19 172/139/19 170/137/19
f 171/140/19 174/141/19 172/139/19
f 54/1/1 28/142/2 27/2/2
f 5/4/3 6/143/3 4/5/3
f 8/7/4 10/144/4 9/8/4
f 10/10/4 12/13/4 11/11/4
f 12/13/4 14/15/4 13/14/4
f 14/15/4 16/17/4 15/16/4
f 16/17/4 18/19/4 17/18/4
f 18/19/4 20/21/4 19/20/4
f 20/21/4 22/145/4 21/22/4
f 120/23/5 122/146/5 111/24/6
f 25/26/4 26/147/4 24/27/4
f 45/29/7 42/148/4 43/30/4
f 33/32/3 34/149/3 32/33/3
f 37/32/3 38/149/3 36/33/3
f 43/30/8 42/148/8 41/35/8
f 41/35/3 39/150/3 40/37/3
f 46/38/9 47/151/10 50/39/10
f 47/41/12 45/29/7 49/31/7
f 48/40/11 30/152/3 29/43/3
f 52/3/1 53/153/13 56/44/13
f 53/45/14 51/49/15 55/46/15
f 2/48/3 55/46/15 51/49/15
f 61/51/3 62/154/3 60/52/3
f 58/54/3 64/46/3 63/49/3
f 74/56/3 71/155/3 69/57/3
f 22/59/4 117/104/7 113/60/7
f 68/62/8 67/67/8 66/63/8
f 72/65/16 71/155/16 74/56/16
f 67/67/4 123/108/7 119/68/7
f 77/69/17 102/96/18 104/70/18
f 78/72/16 77/69/16 80/71/16
f 101/74/6 75/156/3 76/75/3
f 95/77/6 78/72/3 79/73/3
f 81/79/19 83/157/19 84/80/19
f 86/82/20 85/85/20 88/83/20
f 85/85/17 81/79/17 82/81/17
f 93/86/21 94/89/22 91/87/22
f 94/89/23 92/91/24 90/90/24
f 92/91/24 86/82/19 87/84/19
f 96/92/18 97/95/25 100/93/25
f 97/95/26 95/77/6 99/78/6
f 102/96/18 103/98/25 106/97/25
f 103/98/26 101/74/6 105/76/6
f 125/99/17 126/158/17 93/86/21
f 107/25/6 111/24/6 112/100/26
f 109/101/25 112/100/25 110/102/18
f 110/102/18 72/65/17 73/66/17
f 117/104/7 118/159/12 115/105/12
f 115/105/27 118/159/27 116/106/5
f 123/108/7 124/110/12 121/109/12
f 124/110/27 122/146/5 120/23/5
f 114/107/5 116/106/5 68/62/3
f 128/111/17 126/158/17 125/99/17
f 98/94/18 128/111/17 127/112/17
f 133/113/28 130/160/29 129/99/29
f 132/115/30 136/117/31 137/116/31
f 136/117/31 135/119/32 138/118/32
f 135/119/32 134/121/33 139/120/33
f 134/121/33 133/113/28 140/114/28
f 143/32/17 144/149/17 142/33/17
f 148/111/17 146/161/17 145/122/17
f 152/123/17 151/162/17 149/124/17
f 154/32/4 153/149/4 155/33/4
f 157/111/34 159/163/34 160/126/34
f 83/127/19 161/130/19 162/128/19
f 161/130/19 163/132/19 164/131/19
f 163/132/19 165/134/19 166/133/19
f 165/134/19 167/136/19 168/135/19
f 167/136/19 169/138/19 170/137/19
f 169/138/19 171/140/19 172/139/19
f 171/140/19 173/164/19 174/141/19
