# Blender 4.5.3 LTS
# www.blender.org
mtllib mat_garage_floor.mtl
o prop_garage_pit_cover
v 0.438928 0.012841 0.536732
v 0.523339 0.048326 0.445307
v 0.438928 0.012841 -0.560982
v 0.523339 0.048326 -0.469557
v 6.020340 0.012841 0.536732
v 5.935930 0.048326 0.445307
v 6.020340 0.012841 -0.560982
v 5.935930 0.048326 -0.469557
v 0.496907 0.048326 0.470218
v 0.496907 0.048326 -0.494468
v 5.962360 0.048326 -0.494468
v 5.962360 0.048326 0.470218
v 0.523339 0.039244 0.445307
v 0.523339 0.039244 -0.469557
v 5.935930 0.039244 -0.469557
v 5.935930 0.039244 0.445307
vn -0.0000 1.0000 -0.0000
vn -0.5220 0.8529 -0.0000
vn -0.0000 0.8823 -0.4707
vn 0.5220 0.8529 -0.0000
vn -0.0000 0.8823 0.4707
vn -0.0000 -0.0000 1.0000
vn -1.0000 -0.0000 -0.0000
vn 1.0000 -0.0000 -0.0000
vn -0.0000 -0.0000 -1.0000
vt 1.071869 5.695881
vt -0.812861 -4.813380
vt 1.071868 -4.813379
vt 0.717581 -2.256282
vt 0.648945 -1.147614
vt 0.648945 -2.327792
vt -0.550463 -2.327793
vt -0.470632 3.269044
vt -0.550463 3.327793
vt 0.787079 -2.256282
vt 0.718443 -1.147614
vt 0.718443 -2.327793
vt -0.389938 -2.269042
vt -0.469768 3.327792
vt -0.469769 -2.327792
vt 0.621301 3.183511
vt 0.621301 -2.301010
vt -0.389075 3.210293
vt -0.362292 3.183511
vt 0.648083 -2.327792
vt 0.648083 3.210293
vt -0.362292 -2.301010
vt -0.389075 -2.327792
vt -0.812860 5.695881
vt 0.717581 -1.219125
vt -0.470631 -2.269043
vt 0.787079 -1.219124
vt -0.389937 3.269043
s 1
usemtl mat_garage_floor
f 14/1/1 16/2/1 15/3/1
f 14/1/1 13/24/1 16/2/1
usemtl mat_garage_metal
f 9/4/2 3/5/2 1/6/2
f 3/7/3 11/8/3 7/9/3
f 11/10/4 5/11/4 7/12/4
f 12/13/5 1/14/5 5/15/5
f 4/16/6 15/17/6 8/17/6
f 4/16/1 9/18/1 2/19/1
f 4/16/1 11/20/1 10/21/1
f 6/22/1 11/20/1 8/17/1
f 2/19/1 12/23/1 6/22/1
f 8/17/7 16/22/7 6/22/7
f 2/19/8 14/16/8 4/16/8
f 6/22/9 13/19/9 2/19/9
f 9/4/2 10/25/2 3/5/2
f 3/7/3 10/26/3 11/8/3
f 11/10/4 12/27/4 5/11/4
f 12/13/5 9/28/5 1/14/5
f 4/16/6 14/16/6 15/17/6
f 4/16/1 10/21/1 9/18/1
f 4/16/1 8/17/1 11/20/1
f 6/22/1 12/23/1 11/20/1
f 2/19/1 9/18/1 12/23/1
f 8/17/7 15/17/7 16/22/7
f 2/19/8 13/19/8 14/16/8
f 6/22/9 16/22/9 13/19/9
