# Blender 4.5.3 LTS
# www.blender.org
mtllib dec_garage_sewage.mtl
o dec_garage_sewage_v1
v 5.340669 0.000014 1.395816
v 5.340669 0.000014 1.950984
v 4.797479 0.000014 1.395816
v 4.797479 0.000014 1.950984
vn -0.0000 1.0000 -0.0000
vt 0.847721 0.704118
vt 0.699151 0.855963
vt 0.699151 0.704118
vt 0.847721 0.855963
s 1
usemtl dec_garage_sewage
f 2/1/1 3/2/1 4/3/1
f 2/1/1 1/4/1 3/2/1
o dec_garage_sewage_v1.001
v 5.340669 0.003358 -1.941060
v 5.340669 0.003358 -1.385891
v 4.797479 0.003358 -1.941060
v 4.797479 0.003358 -1.385891
vn -0.0000 1.0000 -0.0000
vt 0.847721 0.704118
vt 0.699151 0.855963
vt 0.699151 0.704118
vt 0.847721 0.855963
s 1
usemtl dec_garage_sewage
f 6/5/2 7/6/2 8/7/2
f 6/5/2 5/8/2 7/6/2
o dec_garage_sewage_v1.002
v 2.345520 0.010741 -1.938273
v 2.345520 0.010741 -1.383105
v 1.802329 0.010741 -1.938273
v 1.802329 0.010741 -1.383105
vn -0.0000 1.0000 -0.0000
vt 0.847721 0.704118
vt 0.699151 0.855963
vt 0.699151 0.704118
vt 0.847721 0.855963
s 1
usemtl dec_garage_sewage
f 10/9/3 11/10/3 12/11/3
f 10/9/3 9/12/3 11/10/3
o dec_garage_sewage_v1.003
v 2.345520 0.002260 1.398603
v 2.345520 0.002260 1.953771
v 1.802329 0.002260 1.398603
v 1.802329 0.002260 1.953771
vn -0.0000 1.0000 -0.0000
vt 0.847721 0.704118
vt 0.699151 0.855963
vt 0.699151 0.704118
vt 0.847721 0.855963
s 1
usemtl dec_garage_sewage
f 14/13/4 15/14/4 16/15/4
f 14/13/4 13/16/4 15/14/4
o dec_garage_sewage_v1.004
v -0.651038 0.002587 1.389699
v -0.651038 0.002587 1.944868
v -1.194229 0.002587 1.389699
v -1.194229 0.002587 1.944868
vn -0.0000 1.0000 -0.0000
vt 0.847721 0.704118
vt 0.699151 0.855963
vt 0.699151 0.704118
vt 0.847721 0.855963
s 1
usemtl dec_garage_sewage
f 18/17/5 19/18/5 20/19/5
f 18/17/5 17/20/5 19/18/5
o dec_garage_sewage_v1.005
v -0.651038 0.000248 -1.947176
v -0.651038 0.000248 -1.392008
v -1.194229 0.000248 -1.947176
v -1.194229 0.000248 -1.392008
vn -0.0000 1.0000 -0.0000
vt 0.847721 0.704118
vt 0.699151 0.855963
vt 0.699151 0.704118
vt 0.847721 0.855963
s 1
usemtl dec_garage_sewage
f 22/21/6 23/22/6 24/23/6
f 22/21/6 21/24/6 23/22/6
o dec_garage_sewage_v3.001
v 7.088460 0.537334 2.590336
v 7.088460 0.537334 2.099989
v 7.088460 0.048382 2.590336
v 7.088460 0.048382 2.099989
vn -1.0000 -0.0000 -0.0000
vt 1.000000 0.704118
vt 0.847721 0.855963
vt 0.847721 0.704118
vt 1.000000 0.855963
s 1
usemtl dec_garage_sewage
f 27/25/7 26/26/7 28/27/7
f 27/25/7 25/28/7 26/26/7
