# Blender 4.5.3 LTS
# www.blender.org
mtllib dec_damage_wall.mtl
o dec_garage_damage_concrete
v 7.088436 3.469801 2.128448
v 7.088436 -0.027241 2.128448
v 7.088436 3.469801 1.976052
v 7.088436 -0.027241 1.976052
v 7.088436 3.473979 -1.982870
v 7.088436 -0.027241 -1.982870
v 7.088436 3.473979 -2.135267
v 7.088436 0.159487 2.128448
v 7.088436 -0.027241 2.703478
v 7.088436 0.159487 2.703478
v 7.088436 0.143977 -2.135267
v 7.088436 -0.027241 -2.893113
v 7.088436 0.143977 -2.893113
v 2.360093 3.814075 -3.006320
v 7.035128 3.814075 -3.006320
v 2.125449 3.966471 -3.006320
v 7.035128 3.966471 -3.006320
v -2.538928 3.814075 -3.006320
v 2.136106 3.814075 -3.006320
v -2.773573 3.966471 -3.006320
v 2.136106 3.966471 -3.006320
v -2.591899 3.791924 2.983933
v 2.083135 3.791924 2.983933
v -2.826545 3.944320 2.983933
v 2.083135 3.944320 2.983933
v 6.542369 3.785643 2.983933
v 1.867335 3.785644 2.983933
v 6.777015 3.938039 2.983933
v 1.867335 3.938040 2.983933
v 2.360093 0.146301 -3.006320
v 7.035128 0.146300 -3.006320
v 2.125448 -0.006095 -3.006320
v 7.035128 -0.006096 -3.006320
v -2.538928 0.146301 -3.006320
v 2.136106 0.146300 -3.006320
v -2.773573 -0.006095 -3.006320
v 2.136106 -0.006096 -3.006320
v -2.591899 0.124150 2.983933
v 2.083134 0.124149 2.983933
v -2.826545 -0.028246 2.983933
v 2.083134 -0.028247 2.983933
v 6.542369 0.117870 2.983933
v 1.867335 0.117869 2.983933
v 6.777015 -0.034526 2.983933
v 1.867335 -0.034527 2.983933
v 0.632062 -0.028247 2.983933
v 0.632062 0.124150 2.983933
v -0.503851 -0.028247 2.983933
v -0.503851 0.124150 2.983933
v 0.393186 0.001979 -0.609541
v 6.064455 0.001979 -0.609541
v 0.393186 0.001979 -0.789674
v 6.064455 0.001979 -0.789674
v 6.065628 0.001979 0.581755
v 0.394283 0.001979 0.581755
v 6.065628 0.001979 0.761888
v 0.394283 0.001979 0.761888
v 0.432379 0.000393 0.583836
v 0.432379 0.000393 -0.605395
v 6.021682 0.000393 0.583836
v 6.021682 0.000393 -0.605395
v 0.306449 0.000393 0.717153
v 0.306449 0.000393 -0.738712
v 6.147612 0.000393 0.717153
v 6.147612 0.000393 -0.738712
v -0.495678 0.000000 2.988577
v -0.496217 2.121656 2.988577
v 0.628512 0.000000 2.988577
v 0.629052 2.121656 2.988577
v -0.584229 2.199156 2.988577
v 0.728074 2.199156 2.988577
v -0.495678 0.000000 3.088753
v -0.496217 2.121656 3.088753
v 0.628512 0.000000 3.088753
v 0.629052 2.121656 3.088753
v -0.583689 0.000000 2.988577
v 0.727534 0.000000 2.988577
vn -1.0000 -0.0000 -0.0000
vn -0.0000 -0.0000 1.0000
vn -0.0000 -0.0000 -1.0000
vn -0.0000 1.0000 -0.0000
vn -0.0000 -1.0000 -0.0000
vn -1.0000 0.0003 -0.0000
vn 1.0000 0.0003 -0.0000
vt 0.461599 0.698349
vt 0.505837 0.639826
vt 0.459484 0.641552
vt 0.003614 0.553685
vt 0.951429 0.511150
vt 0.003614 0.511149
vt 0.284579 0.648068
vt 1.003823 0.549721
vt 0.051121 0.522428
vt 0.004019 0.565723
vt 0.408083 0.779718
vt 0.704927 0.735132
vt 0.354194 0.709444
vt 1.003142 0.507190
vt 0.477011 0.558152
vt 0.708327 0.554450
vt 1.003547 0.553685
vt 0.286695 0.704864
vt 0.700095 0.801105
vt 0.476330 0.515622
vt 0.707647 0.511920
vt 0.038959 0.642989
vt 1.038904 0.611571
vt 1.038904 0.642989
vt -0.446838 0.642989
vt 0.553107 0.611571
vt 0.553107 0.642989
vt 0.038959 0.611571
vt -0.446838 0.611571
vt 1.780222 0.306150
vt -1.835844 0.416064
vt -1.756750 0.331136
vt 1.107913 0.389097
vt 0.270427 0.315320
vt 1.022985 0.310003
vt -1.799632 0.330912
vt 1.817626 0.389727
vt -1.719347 0.414713
vt 1.169135 0.389927
vt 0.331650 0.316150
vt 1.084208 0.310834
vt 1.860508 0.389952
vt 0.186625 0.395606
vt 1.896719 0.304799
vt 0.247848 0.396436
vt 0.063309 0.927935
vt 0.964821 0.965332
vt 0.030368 0.965323
vt 0.076651 0.633142
vt 0.956148 0.592102
vt 0.956158 0.633151
vt 0.832723 0.815525
vt 0.145019 0.886110
vt 0.144192 0.824814
vt 0.076650 0.674668
vt 0.089699 0.778120
vt 0.892673 0.767287
vt 0.063309 0.885369
vt 0.964830 0.927935
vt 0.044514 0.592102
vt 0.833550 0.876821
vt 0.956157 0.674678
vt 0.964830 0.885369
s 1
usemtl dec_damage_wall
f 8/1/1 4/2/1 2/3/1
f 3/4/1 8/5/1 1/6/1
f 9/7/1 8/1/1 2/3/1
f 5/8/1 11/9/1 6/10/1
f 11/11/1 12/12/1 6/13/1
f 17/8/2 14/9/2 15/14/2
f 21/8/2 18/9/2 19/14/2
f 25/8/3 22/9/3 24/10/3
f 29/8/3 26/9/3 27/14/3
f 33/8/3 30/9/3 31/14/3
f 37/8/3 34/9/3 35/14/3
f 48/15/2 38/9/2 40/10/2
f 45/8/2 42/9/2 43/14/2
f 39/14/2 46/16/2 41/8/2
f 3/4/1 4/17/1 8/5/1
f 9/7/1 10/18/1 8/1/1
f 5/8/1 7/14/1 11/9/1
f 11/11/1 13/19/1 12/12/1
f 17/8/2 16/10/2 14/9/2
f 21/8/2 20/10/2 18/9/2
f 25/8/3 23/14/3 22/9/3
f 29/8/3 28/10/3 26/9/3
f 33/8/3 32/10/3 30/9/3
f 37/8/3 36/10/3 34/9/3
f 48/15/2 49/20/2 38/9/2
f 45/8/2 44/10/2 42/9/2
f 39/14/2 47/21/2 46/16/2
f 51/22/4 52/23/4 50/24/4
f 55/25/4 56/26/4 54/27/4
f 51/22/4 53/28/4 52/23/4
f 55/25/4 57/29/4 56/26/4
f 61/30/4 63/31/4 59/32/4
f 64/33/4 61/34/4 60/35/4
f 62/36/4 60/37/4 58/38/4
f 63/39/4 58/40/4 59/41/4
f 61/30/4 65/42/4 63/31/4
f 64/33/4 65/43/4 61/34/4
f 62/36/4 64/44/4 60/37/4
f 63/39/4 62/45/4 58/40/4
f 67/46/3 76/47/3 70/48/3
f 69/49/3 77/50/3 68/51/3
f 69/52/5 73/53/5 67/54/5
f 68/51/6 75/55/6 69/49/6
f 69/52/3 70/56/3 71/57/3
f 73/58/7 66/59/7 67/46/7
f 67/46/3 66/59/3 76/47/3
f 69/49/3 71/60/3 77/50/3
f 69/52/5 75/61/5 73/53/5
f 68/51/6 74/62/6 75/55/6
f 69/52/3 67/54/3 70/56/3
f 73/58/7 72/63/7 66/59/7
