# Blender 4.5.3 LTS
# www.blender.org
mtllib mat_garage_concrete_slabs.mtl
o prop_garage_door
v -0.497521 0.000000 3.088754
v -0.497521 2.122960 3.088754
v 0.630355 0.000000 3.088754
v 0.630355 2.122960 3.088754
v -0.497521 2.122960 3.157818
v 0.630355 2.122960 3.157818
v 0.630355 0.000000 3.157818
v -0.497521 0.000000 3.157818
v -0.398998 0.875328 3.088754
v 0.531832 0.875328 3.088754
v 0.531832 0.098523 3.088754
v -0.398998 0.098523 3.088754
v -0.398998 2.024437 3.088754
v 0.531832 2.024437 3.088754
v 0.531819 0.973851 3.088754
v -0.399027 0.973851 3.088754
v 0.531819 0.973851 3.088754
v -0.399027 0.973851 3.088754
v -0.497521 0.000000 2.989091
v 0.630355 0.000000 2.989091
v -0.398998 0.098523 3.088754
v 0.531832 0.098523 3.088754
v -0.398998 0.875328 3.123779
v 0.531832 0.875328 3.123779
v -0.398998 0.098523 3.123779
v -0.398998 2.024437 3.115172
v 0.531832 2.024437 3.115172
v -0.399027 0.973851 3.115172
v 0.531819 0.973851 3.115172
v 0.531832 0.098523 3.123779
v -0.240950 1.052204 3.044839
v -0.259466 1.020133 3.030111
v -0.238085 1.041514 3.044839
v -0.240950 1.052204 3.030111
v -0.456091 1.022998 3.030111
v -0.463916 1.052204 3.030111
v -0.456091 1.060030 3.030111
v -0.424019 1.041514 3.044839
v -0.445400 1.020133 3.030111
v -0.426884 1.052204 3.044839
v -0.434710 1.060030 3.044839
v -0.434710 1.022998 3.044839
v -0.426884 1.030823 3.044839
v -0.445400 1.062894 3.030111
v -0.424019 1.041514 3.088378
v -0.434710 1.060030 3.088378
v -0.426884 1.052204 3.088378
v -0.426884 1.030823 3.088378
v -0.434710 1.022998 3.088378
v -0.445400 1.062894 3.044839
v -0.466781 1.041514 3.030111
v -0.445400 1.020133 3.044839
v -0.463916 1.030823 3.030111
v -0.445400 1.062894 3.088378
v -0.463916 1.052204 3.088378
v -0.456091 1.060030 3.088378
v -0.445400 1.020133 3.088378
v -0.466781 1.041514 3.088378
v -0.456091 1.022998 3.088378
v -0.463916 1.030823 3.088378
v -0.248775 1.060030 3.044839
v -0.248775 1.022998 3.030111
v -0.248775 1.060030 3.030111
v -0.248775 1.022998 3.044839
v -0.240950 1.030823 3.044839
v -0.259466 1.062894 3.030111
v -0.240950 1.030823 3.030111
v -0.238085 1.041514 3.030111
v -0.259466 1.062894 3.044839
v -0.259466 1.020133 3.044839
v -0.466781 1.041514 3.044839
v -0.456091 1.060030 3.044839
v -0.463916 1.052204 3.044839
v -0.456091 1.022998 3.044839
v -0.463916 1.030823 3.044839
vn -0.0000 1.0000 -0.0000
vn -0.0000 -1.0000 -0.0000
vn -0.0000 -0.0000 -1.0000
vn -1.0000 -0.0000 -0.0000
vn -0.0000 -0.0000 1.0000
vn 1.0000 -0.0000 -0.0000
vn -0.9659 0.2589 -0.0000
vn -0.8660 0.5000 -0.0000
vn -0.5000 -0.8660 -0.0000
vn -0.1305 -0.9914 -0.0000
vn -0.1739 -0.9848 -0.0000
vn -0.9659 -0.2589 -0.0000
vn -0.8660 -0.5000 -0.0000
vn -0.5000 0.8660 -0.0000
vn 0.5000 0.8660 -0.0000
vn 0.2588 0.9659 -0.0000
vn 0.8660 0.5000 -0.0000
vn 0.9659 0.2589 -0.0000
vn 0.5000 -0.8660 -0.0000
vn 0.2589 -0.9659 -0.0000
vn 0.8660 -0.5000 -0.0000
vn 0.9659 -0.2589 -0.0000
vn 0.1305 0.9914 -0.0000
vn -0.1305 0.9914 -0.0000
vn -0.1738 0.9848 -0.0000
vn 0.1305 -0.9914 -0.0000
vn 0.9659 -0.2588 -0.0000
vn -0.2588 0.9659 -0.0000
vn -0.9659 -0.2588 -0.0000
vn -0.2588 -0.9659 -0.0000
vn -0.0001 -0.0000 1.0000
vn 0.0001 -0.0000 1.0000
vn -0.0001 -0.0000 -1.0000
vt 0.396915 0.957015
vt 0.355344 -0.147762
vt 0.396915 -0.147762
vt 0.037135 0.030667
vt 0.455594 0.035992
vt 0.429423 0.066888
vt 0.442519 0.968875
vt 0.000071 0.944922
vt 0.031065 0.913534
vt 0.478426 0.426339
vt 0.478431 0.465325
vt 0.438096 0.737018
vt 0.479120 0.304391
vt 0.479120 0.695610
vt 0.438470 0.424801
vt 0.438930 0.110994
vt 0.478361 0.071194
vt 0.438494 0.266742
vt 0.478867 0.692507
vt 0.438494 0.733258
vt 0.437057 0.465325
vt 0.801998 0.452580
vt 0.437265 0.305230
vt 0.478115 0.694776
vt 0.437265 0.694781
vt 0.000071 0.000071
vt 0.396989 0.737225
vt 0.356135 -0.168840
vt 0.396989 -0.168840
vt 0.624293 0.252773
vt 0.998605 0.777672
vt 0.624293 0.777672
vt 0.355080 -0.328941
vt 0.396769 1.328941
vt 0.355080 1.328941
vt 0.355447 -0.323188
vt 0.396760 1.132435
vt 0.355447 1.132435
vt 0.356120 -0.126648
vt 0.396102 0.935902
vt 0.356120 0.935902
vt 0.356221 -0.168840
vt 0.397074 0.737226
vt 0.356221 0.737226
vt 0.396834 1.132460
vt 0.355522 -0.323188
vt 0.396834 -0.323188
vt 0.396918 1.336712
vt 0.354838 -0.336712
vt 0.396918 -0.336712
vt 0.471295 0.999929
vt 0.476263 0.417246
vt 0.466917 0.563605
vt 0.457572 0.561100
vt 0.479375 0.710193
vt 0.437743 0.720093
vt 0.479375 0.720093
vt 0.438883 0.451369
vt 0.478180 0.427053
vt 0.438884 0.427053
vt 0.438883 0.500000
vt 0.478180 0.475684
vt 0.438883 0.475684
vt 0.438883 0.524316
vt 0.478180 0.548631
vt 0.478180 0.524316
vt 0.437743 0.749792
vt 0.479375 0.739892
vt 0.437743 0.739892
vt 0.437743 0.759691
vt 0.479375 0.749792
vt 0.437743 0.769591
vt 0.479375 0.759691
vt 0.479375 0.670594
vt 0.437743 0.680494
vt 0.479375 0.680494
vt 0.479375 0.660694
vt 0.437743 0.670594
vt 0.479375 0.650795
vt 0.437743 0.660694
vt 0.437743 0.690394
vt 0.479375 0.700293
vt 0.479375 0.690394
vt 0.479375 0.729992
vt 0.438884 0.981454
vt 0.478180 0.572947
vt 0.438884 0.572947
vt 0.443324 0.427791
vt 0.450652 0.415100
vt 0.472633 0.427791
vt 0.478180 0.018546
vt 0.438883 0.020401
vt 0.478180 -0.003915
vt 0.438883 -0.003915
vt 0.438883 0.010170
vt 0.478180 -0.014146
vt 0.438883 -0.014146
vt 0.438883 0.010249
vt 0.478180 -0.014067
vt 0.438883 -0.014067
vt 0.438884 1.014067
vt 0.478180 0.989751
vt 0.438884 0.989751
vt 0.438884 1.014146
vt 0.478180 0.989830
vt 0.438884 0.989830
vt 0.438884 1.003915
vt 0.478180 0.979599
vt 0.438884 0.979599
vt 0.478180 0.451369
vt 0.437743 0.710193
vt 0.437743 0.700293
vt 0.478180 0.500000
vt 0.313542 0.739143
vt 0.011239 0.397948
vt 0.313548 0.397945
vt 0.001424 0.531623
vt 0.332081 0.499537
vt 0.332081 0.531623
vt 0.355345 0.957015
vt 0.478426 0.881045
vt 0.439802 0.920031
vt 0.439802 0.079969
vt 0.478426 0.118955
vt 0.438096 0.262983
vt 0.478361 0.928806
vt 0.438521 0.464601
vt 0.438930 0.889006
vt 0.478867 0.307493
vt 0.478115 0.305218
vt 0.356135 0.737225
vt 0.998605 0.252773
vt 0.396769 -0.328941
vt 0.396760 -0.323188
vt 0.396102 -0.126648
vt 0.397074 -0.168840
vt 0.355522 1.132460
vt 0.354838 1.336712
vt 0.441385 0.570446
vt 0.438880 0.579792
vt 0.438880 0.417246
vt 0.441385 0.407901
vt 0.448226 0.401059
vt 0.457572 0.398555
vt 0.466917 0.401059
vt 0.473759 0.407901
vt 0.476263 0.579792
vt 0.473759 0.570446
vt 0.448226 0.563605
vt 0.438883 0.548631
vt 0.479375 0.769591
vt 0.437743 0.650795
vt 0.437743 0.729992
vt 0.478180 0.981454
vt 0.457979 0.413137
vt 0.465306 0.415100
vt 0.470670 0.420464
vt 0.472633 0.555232
vt 0.443324 0.555232
vt 0.470670 0.562559
vt 0.457979 0.569887
vt 0.465306 0.567923
vt 0.450652 0.567923
vt 0.445288 0.562559
vt 0.445288 0.420464
vt 0.438883 0.018546
vt 0.478180 0.020401
vt 0.478180 0.010170
vt 0.478180 0.010249
vt 0.478180 1.014066
vt 0.478180 1.014146
vt 0.478180 1.003915
vt 0.011238 0.739146
vt 0.001424 0.499537
s 1
usemtl trim_garage_metal_red
f 21/1/1 30/2/1 22/3/1
f 3/4/2 8/5/2 1/6/2
f 2/7/1 6/8/1 4/9/1
f 10/10/3 17/11/3 15/11/3
f 3/12/3 12/13/3 11/14/3
f 9/15/3 21/16/3 1/17/3
f 4/18/3 13/19/3 2/20/3
s 0
f 15/21/4 18/22/5 16/22/4
s 1
f 9/23/3 17/24/3 10/25/3
f 4/9/6 7/26/6 3/4/6
f 9/27/6 25/28/6 21/29/6
f 24/30/3 25/31/3 23/32/3
f 15/33/4 27/34/4 14/35/4
f 14/36/2 26/37/2 13/38/2
f 10/39/2 23/40/2 9/41/2
f 22/42/4 24/43/4 10/44/4
f 16/45/1 29/46/1 15/47/1
f 13/48/6 28/49/6 16/50/6
f 1/6/4 5/51/4 2/7/4
f 69/52/5 40/53/5 38/54/5
f 71/55/7 55/56/8 73/57/8
f 74/58/9 39/59/10 52/60/11
f 71/61/12 53/62/13 75/63/13
f 73/64/8 37/65/14 36/66/8
f 46/67/15 50/68/16 54/69/16
f 47/70/17 41/71/15 46/67/15
f 45/72/18 40/73/17 47/70/17
f 42/74/19 57/75/20 52/76/20
f 43/77/21 49/78/19 42/74/19
f 38/79/22 48/80/21 43/77/21
f 59/81/9 75/82/13 74/83/9
f 55/56/8 72/84/14 73/57/8
f 69/85/23 44/86/24 50/87/25
f 66/88/3 34/89/3 32/90/3
f 32/91/26 52/60/11 39/59/10
f 70/92/26 62/93/19 64/94/19
f 64/95/19 67/96/21 65/97/21
f 65/98/21 68/99/22 33/100/27
f 33/101/18 34/102/17 31/103/17
f 31/104/17 63/105/15 61/106/15
f 61/107/15 66/108/23 69/109/23
f 72/84/14 54/69/28 50/68/25
f 74/58/9 53/62/13 35/110/9
f 58/111/29 75/82/13 60/112/13
f 51/113/7 73/64/8 36/66/8
f 37/65/14 50/87/25 44/86/24
f 59/81/9 52/76/11 57/75/30
f 21/1/1 25/120/1 30/2/1
f 3/4/2 7/26/2 8/5/2
f 2/7/1 5/51/1 6/8/1
f 14/121/3 4/122/3 15/11/3
f 4/122/3 3/123/3 15/11/3
f 15/11/3 3/123/3 10/10/3
f 11/124/3 22/124/4 10/10/3
f 3/123/3 11/124/3 10/10/3
f 3/12/3 1/125/3 12/13/3
f 1/17/3 2/126/3 16/127/3
f 2/126/3 13/128/3 16/127/3
f 16/127/3 18/127/5 9/15/3
f 1/17/3 16/127/3 9/15/3
f 21/16/3 12/16/3 1/17/3
f 4/18/3 14/129/3 13/19/3
s 0
f 15/21/5 17/21/4 18/22/6
s 1
f 9/23/3 18/130/5 17/24/3
f 4/9/6 6/8/6 7/26/6
f 9/27/6 23/131/6 25/28/6
f 24/30/3 30/132/3 25/31/3
f 15/33/4 29/133/4 27/34/4
f 14/36/2 27/134/2 26/37/2
f 10/39/2 24/135/2 23/40/2
f 22/42/4 30/136/4 24/43/4
f 16/45/1 28/137/1 29/46/1
f 13/48/6 26/138/6 28/49/6
f 1/6/4 8/5/4 5/51/4
f 42/139/5 52/140/5 70/141/5
f 70/141/5 64/142/31 65/143/5
f 65/143/5 33/144/32 31/145/5
f 31/145/5 61/146/5 69/52/5
f 69/52/5 50/147/5 41/148/5
f 69/52/5 41/148/5 40/53/5
f 65/143/5 31/145/5 69/52/5
f 42/139/5 70/141/5 43/149/5
f 70/141/5 65/143/5 69/52/5
f 43/149/5 70/141/5 38/54/5
f 38/54/5 70/141/5 69/52/5
f 71/55/7 58/111/7 55/56/8
f 74/58/9 35/110/9 39/59/10
f 71/61/12 51/113/12 53/62/13
f 73/64/8 72/150/14 37/65/14
f 46/67/15 41/71/15 50/68/16
f 47/70/17 40/73/17 41/71/15
f 45/72/18 38/151/18 40/73/17
f 42/74/19 49/78/19 57/75/20
f 43/77/21 48/80/21 49/78/19
f 38/79/22 45/152/27 48/80/21
f 59/81/9 60/112/13 75/82/13
f 55/56/8 56/153/14 72/84/14
f 69/85/23 66/154/23 44/86/24
f 34/89/3 68/155/3 67/156/3
f 67/156/3 62/157/3 34/89/3
f 62/157/3 32/90/3 34/89/3
f 32/90/3 39/158/3 44/159/3
f 39/158/3 35/160/3 51/161/3
f 35/160/3 53/162/3 51/161/3
f 51/161/3 36/163/33 37/164/3
f 37/164/3 44/159/3 51/161/3
f 44/159/3 66/88/3 32/90/3
f 51/161/3 44/159/3 39/158/3
f 66/88/3 63/165/3 34/89/3
f 32/91/26 70/166/26 52/60/11
f 70/92/26 32/167/26 62/93/19
f 64/95/19 62/168/19 67/96/21
f 65/98/21 67/169/21 68/99/22
f 33/101/18 68/170/18 34/102/17
f 31/104/17 34/171/17 63/105/15
f 61/107/15 63/172/15 66/108/23
f 72/84/14 56/153/14 54/69/28
f 74/58/9 75/63/13 53/62/13
f 58/111/29 71/55/12 75/82/13
f 51/113/7 71/61/7 73/64/8
f 37/65/14 72/150/14 50/87/25
f 59/81/9 74/83/9 52/76/11
usemtl mat_garage_tool_table
f 26/114/3 29/115/3 28/116/3
f 26/114/3 27/173/3 29/115/3
usemtl mat_garage_concrete_slabs
f 3/117/1 19/118/1 1/119/1
f 3/117/1 20/174/1 19/118/1
o prop_garage_floor
v -2.908276 -0.000000 -3.010909
v 7.091724 0.000000 2.989091
v -2.908276 0.000000 2.989091
v 0.455725 0.000000 0.532693
v 0.455725 -0.000000 -0.554463
v 6.021682 0.000000 0.532693
v 6.021682 -0.000000 -0.554463
v 7.091724 -0.000000 -3.010909
vn -0.0000 1.0000 -0.0000
vt -2.000047 0.000768
vt -0.228293 1.682746
vt 0.999913 0.000768
vt -2.000047 5.000700
vt -0.228293 4.465687
vt -0.771864 4.465688
vt -0.771864 1.682747
vt 0.999913 5.000700
vt -0.771864 1.682746
vt -0.771864 4.465687
vt -0.228293 4.465686
s 1
usemtl mat_garage_concrete_slabs
f 78/175/34 80/176/34 76/177/34
f 77/178/34 82/179/34 81/180/34
f 77/178/34 79/181/34 78/175/34
f 80/176/34 83/182/34 76/177/34
f 78/175/34 79/183/34 80/176/34
f 77/178/34 83/182/34 82/179/34
f 77/178/34 81/184/34 79/181/34
f 80/176/34 82/185/34 83/182/34
